G04*
G04 #@! TF.GenerationSoftware,Altium Limited,Altium Designer,24.3.1 (35)*
G04*
G04 Layer_Color=16711935*
%FSLAX25Y25*%
%MOIN*%
G70*
G04*
G04 #@! TF.SameCoordinates,1CC19C7B-97DE-4EE6-9EAD-702A75026B31*
G04*
G04*
G04 #@! TF.FilePolarity,Positive*
G04*
G01*
G75*
%ADD10C,0.00787*%
%ADD13C,0.00500*%
%ADD53C,0.00394*%
D10*
X75894Y27535D02*
G03*
X75894Y27535I-394J0D01*
G01*
D13*
X36287Y73358D02*
X51602D01*
Y99780D01*
X36287D02*
X51602D01*
X211327Y50921D02*
Y120567D01*
X236878D01*
X161602D02*
X211327D01*
X161602Y50921D02*
Y120567D01*
Y50921D02*
X211327D01*
X236878D01*
Y120567D02*
Y142024D01*
Y50921D02*
Y120567D01*
Y29780D02*
Y50921D01*
X36287Y142024D02*
X236878D01*
X36287Y29780D02*
X236878D01*
X36287Y99780D02*
Y142024D01*
Y73358D02*
Y99780D01*
Y29780D02*
Y73358D01*
X3472Y321555D02*
X82213D01*
Y187697D02*
Y321555D01*
X3472Y187697D02*
X82213D01*
X3472D02*
Y321555D01*
D53*
X295406Y173295D02*
G03*
X295406Y157705I-5906J-7795D01*
G01*
X167827Y183669D02*
G03*
X167827Y183669I-1969J0D01*
G01*
X97594Y217205D02*
G03*
X97594Y232795I5906J7795D01*
G01*
X147095Y224205D02*
G03*
X147095Y239795I5906J7795D01*
G01*
X213595Y224205D02*
G03*
X213595Y239795I5906J7795D01*
G01*
X273095Y224705D02*
G03*
X273095Y240295I5906J7795D01*
G01*
X295905Y212795D02*
G03*
X295905Y197205I-5906J-7795D01*
G01*
X295406Y157705D02*
Y173295D01*
X201685Y180126D02*
Y195874D01*
X162315Y180126D02*
Y195874D01*
X201685D01*
X162315Y180126D02*
X201685D01*
X97594Y217205D02*
Y232795D01*
X147094Y224205D02*
Y239795D01*
X213594Y224205D02*
Y239795D01*
X273094Y224705D02*
Y240295D01*
X295906Y197205D02*
Y212795D01*
M02*
