G04*
G04 #@! TF.GenerationSoftware,Altium Limited,Altium Designer,24.3.1 (35)*
G04*
G04 Layer_Color=8388736*
%FSLAX25Y25*%
%MOIN*%
G70*
G04*
G04 #@! TF.SameCoordinates,1CC19C7B-97DE-4EE6-9EAD-702A75026B31*
G04*
G04*
G04 #@! TF.FilePolarity,Negative*
G04*
G01*
G75*
%ADD21O,0.03162X0.09461*%
%ADD22R,0.06706X0.05918*%
%ADD23C,0.12611*%
%ADD24C,0.08674*%
%ADD25R,0.08674X0.08674*%
%ADD26C,0.10800*%
%ADD27O,0.10642X0.08674*%
%ADD28O,0.14580X0.08674*%
%ADD29R,0.14580X0.08674*%
%ADD30O,0.08674X0.16548*%
%ADD31R,0.08674X0.16548*%
%ADD32O,0.08674X0.16548*%
%ADD33C,0.10642*%
%ADD34C,0.23635*%
%ADD35C,0.05800*%
%ADD36C,0.04737*%
D21*
X199500Y197449D02*
D03*
X194500D02*
D03*
X189500D02*
D03*
X184500D02*
D03*
X179500D02*
D03*
X174500D02*
D03*
X169500D02*
D03*
X164500D02*
D03*
X199500Y178551D02*
D03*
X194500D02*
D03*
X189500D02*
D03*
X184500D02*
D03*
X179500D02*
D03*
X174500D02*
D03*
X169500D02*
D03*
X164500D02*
D03*
D22*
X211000Y183000D02*
D03*
Y175520D02*
D03*
Y193000D02*
D03*
Y200480D02*
D03*
X255000Y143500D02*
D03*
Y136020D02*
D03*
D23*
X9378Y173917D02*
D03*
X80244D02*
D03*
X33000Y312500D02*
D03*
X56622D02*
D03*
X385000Y299000D02*
D03*
Y269000D02*
D03*
X365000Y299000D02*
D03*
Y269000D02*
D03*
X12528Y196752D02*
D03*
X73157D02*
D03*
X33000Y312500D02*
D03*
X52685D02*
D03*
X77000Y384000D02*
D03*
Y354000D02*
D03*
X57000Y384000D02*
D03*
Y354000D02*
D03*
X131000Y384000D02*
D03*
Y354000D02*
D03*
X111000Y384000D02*
D03*
Y354000D02*
D03*
X184500Y384000D02*
D03*
Y354000D02*
D03*
X164500Y384000D02*
D03*
Y354000D02*
D03*
X238000Y384000D02*
D03*
Y354000D02*
D03*
X218000Y384000D02*
D03*
Y354000D02*
D03*
X291500Y384000D02*
D03*
Y354000D02*
D03*
X271500Y384000D02*
D03*
Y354000D02*
D03*
X345000Y384000D02*
D03*
Y354000D02*
D03*
X325000Y384000D02*
D03*
Y354000D02*
D03*
D24*
X215500Y136000D02*
D03*
X205500D02*
D03*
X195500D02*
D03*
X185500D02*
D03*
X175500D02*
D03*
X165500D02*
D03*
X155500D02*
D03*
X145500D02*
D03*
X135500D02*
D03*
X125500D02*
D03*
X115500D02*
D03*
X105500D02*
D03*
X95500D02*
D03*
X85500D02*
D03*
X75500D02*
D03*
X215500Y36000D02*
D03*
X205500D02*
D03*
X195500D02*
D03*
X185500D02*
D03*
X175500D02*
D03*
X165500D02*
D03*
X155500D02*
D03*
X145500D02*
D03*
X135500D02*
D03*
X125500D02*
D03*
X115500D02*
D03*
X105500D02*
D03*
X95500D02*
D03*
X85500D02*
D03*
X289500Y174000D02*
D03*
X280000Y165500D02*
D03*
X289500Y157000D02*
D03*
X302500Y159000D02*
D03*
Y129000D02*
D03*
X276500Y177500D02*
D03*
X246500D02*
D03*
X103500Y233500D02*
D03*
X113000Y225000D02*
D03*
X103500Y216500D02*
D03*
X133500Y243000D02*
D03*
X103500D02*
D03*
X129000Y202000D02*
D03*
Y232000D02*
D03*
X153000Y240500D02*
D03*
X162500Y232000D02*
D03*
X153000Y223500D02*
D03*
X141000Y202000D02*
D03*
Y232000D02*
D03*
X197000Y244000D02*
D03*
X167000D02*
D03*
X174500Y232000D02*
D03*
X204500D02*
D03*
X219500Y240500D02*
D03*
X229000Y232000D02*
D03*
X219500Y223500D02*
D03*
X260500Y244000D02*
D03*
X230500D02*
D03*
X255000Y202500D02*
D03*
Y232500D02*
D03*
X279000Y241000D02*
D03*
X288500Y232500D02*
D03*
X279000Y224000D02*
D03*
X324000Y244500D02*
D03*
X294000D02*
D03*
X246500Y191500D02*
D03*
X276500D02*
D03*
X302500Y192000D02*
D03*
Y222000D02*
D03*
X290000Y196500D02*
D03*
X280500Y205000D02*
D03*
X290000Y213500D02*
D03*
X67500Y159000D02*
D03*
X97500D02*
D03*
D25*
X75500Y36000D02*
D03*
D26*
X325000Y166500D02*
D03*
Y121500D02*
D03*
X317000Y144500D02*
D03*
X373000Y166500D02*
D03*
Y121500D02*
D03*
Y185000D02*
D03*
Y230000D02*
D03*
X317000Y208000D02*
D03*
X325000Y185000D02*
D03*
Y230000D02*
D03*
X146000Y313500D02*
D03*
X101000D02*
D03*
X123000Y257500D02*
D03*
X146000Y265500D02*
D03*
X101000D02*
D03*
X209000Y313500D02*
D03*
X164000D02*
D03*
X186000Y257500D02*
D03*
X209000Y265500D02*
D03*
X164000D02*
D03*
X272000Y313500D02*
D03*
X227000D02*
D03*
X249000Y257500D02*
D03*
X272000Y265500D02*
D03*
X227000D02*
D03*
X335000Y313500D02*
D03*
X290000D02*
D03*
X312000Y257500D02*
D03*
X335000Y265500D02*
D03*
X290000D02*
D03*
D27*
X110000Y181000D02*
D03*
Y191000D02*
D03*
D28*
X373500Y73500D02*
D03*
Y83500D02*
D03*
Y93500D02*
D03*
Y103500D02*
D03*
X339500Y88500D02*
D03*
Y98500D02*
D03*
X302500Y88500D02*
D03*
Y98500D02*
D03*
X15000Y143500D02*
D03*
Y133500D02*
D03*
Y123500D02*
D03*
Y113500D02*
D03*
D29*
X373500Y63500D02*
D03*
X339500Y78500D02*
D03*
X302500D02*
D03*
X15000Y153500D02*
D03*
D30*
X264500Y14500D02*
D03*
X244500D02*
D03*
X254500D02*
D03*
X284500D02*
D03*
X274500D02*
D03*
X294500D02*
D03*
D31*
X224500D02*
D03*
D32*
X234500D02*
D03*
D33*
X9315Y341000D02*
D03*
X29000D02*
D03*
D34*
X19685Y19685D02*
D03*
Y374016D02*
D03*
X374016D02*
D03*
Y19685D02*
D03*
D35*
X165500Y87000D02*
D03*
X264000Y58000D02*
D03*
Y50000D02*
D03*
X285500Y120500D02*
D03*
X248000D02*
D03*
X235500Y79500D02*
D03*
X227000D02*
D03*
X235000Y154500D02*
D03*
X227000D02*
D03*
X189500Y188000D02*
D03*
X183000Y212500D02*
D03*
X153500Y148500D02*
D03*
X179500Y154750D02*
D03*
X202500Y205800D02*
D03*
D36*
X25810Y13560D02*
D03*
X13560D02*
D03*
X11024Y19685D02*
D03*
X13560Y25810D02*
D03*
X26006Y25908D02*
D03*
X28543Y19783D02*
D03*
X19685Y11024D02*
D03*
Y28346D02*
D03*
X25810Y367891D02*
D03*
X13560D02*
D03*
X11024Y374016D02*
D03*
X13560Y380140D02*
D03*
X26006Y380239D02*
D03*
X28543Y374114D02*
D03*
X19685Y365354D02*
D03*
Y382677D02*
D03*
X380140Y367891D02*
D03*
X367891D02*
D03*
X365354Y374016D02*
D03*
X367891Y380140D02*
D03*
X380337Y380239D02*
D03*
X382874Y374114D02*
D03*
X374016Y365354D02*
D03*
Y382677D02*
D03*
X380140Y13560D02*
D03*
X367891D02*
D03*
X365354Y19685D02*
D03*
X367891Y25810D02*
D03*
X380337Y25908D02*
D03*
X382874Y19783D02*
D03*
X374016Y11024D02*
D03*
Y28346D02*
D03*
M02*
