G04*
G04 #@! TF.GenerationSoftware,Altium Limited,Altium Designer,24.3.1 (35)*
G04*
G04 Layer_Color=2752767*
%FSLAX25Y25*%
%MOIN*%
G70*
G04*
G04 #@! TF.SameCoordinates,1CC19C7B-97DE-4EE6-9EAD-702A75026B31*
G04*
G04*
G04 #@! TF.FilePolarity,Positive*
G04*
G01*
G75*
%ADD13C,0.00500*%
%ADD55C,0.00667*%
%ADD56C,0.00400*%
D13*
X7378Y173917D02*
X9378Y175917D01*
X11378Y173917D01*
X9378Y171917D01*
X7378Y173917D01*
X78244D02*
X80244Y175917D01*
X82244Y173917D01*
X80244Y171917D01*
X78244Y173917D01*
X54622Y312500D02*
X56622Y314500D01*
X58622Y312500D01*
X56622Y310500D01*
X54622Y312500D01*
X213500Y134000D02*
X214500Y136000D01*
X213500Y138000D01*
X215500Y137000D01*
X217500Y138000D01*
X216500Y136000D01*
X217500Y134000D01*
X215500Y135000D01*
X213500Y134000D01*
X203500D02*
X204500Y136000D01*
X203500Y138000D01*
X205500Y137000D01*
X207500Y138000D01*
X206500Y136000D01*
X207500Y134000D01*
X205500Y135000D01*
X203500Y134000D01*
X193500D02*
X194500Y136000D01*
X193500Y138000D01*
X195500Y137000D01*
X197500Y138000D01*
X196500Y136000D01*
X197500Y134000D01*
X195500Y135000D01*
X193500Y134000D01*
X183500D02*
X184500Y136000D01*
X183500Y138000D01*
X185500Y137000D01*
X187500Y138000D01*
X186500Y136000D01*
X187500Y134000D01*
X185500Y135000D01*
X183500Y134000D01*
X173500D02*
X174500Y136000D01*
X173500Y138000D01*
X175500Y137000D01*
X177500Y138000D01*
X176500Y136000D01*
X177500Y134000D01*
X175500Y135000D01*
X173500Y134000D01*
X163500D02*
X164500Y136000D01*
X163500Y138000D01*
X165500Y137000D01*
X167500Y138000D01*
X166500Y136000D01*
X167500Y134000D01*
X165500Y135000D01*
X163500Y134000D01*
X153500D02*
X154500Y136000D01*
X153500Y138000D01*
X155500Y137000D01*
X157500Y138000D01*
X156500Y136000D01*
X157500Y134000D01*
X155500Y135000D01*
X153500Y134000D01*
X143500D02*
X144500Y136000D01*
X143500Y138000D01*
X145500Y137000D01*
X147500Y138000D01*
X146500Y136000D01*
X147500Y134000D01*
X145500Y135000D01*
X143500Y134000D01*
X133500D02*
X134500Y136000D01*
X133500Y138000D01*
X135500Y137000D01*
X137500Y138000D01*
X136500Y136000D01*
X137500Y134000D01*
X135500Y135000D01*
X133500Y134000D01*
X123500D02*
X124500Y136000D01*
X123500Y138000D01*
X125500Y137000D01*
X127500Y138000D01*
X126500Y136000D01*
X127500Y134000D01*
X125500Y135000D01*
X123500Y134000D01*
X113500D02*
X114500Y136000D01*
X113500Y138000D01*
X115500Y137000D01*
X117500Y138000D01*
X116500Y136000D01*
X117500Y134000D01*
X115500Y135000D01*
X113500Y134000D01*
X103500D02*
X104500Y136000D01*
X103500Y138000D01*
X105500Y137000D01*
X107500Y138000D01*
X106500Y136000D01*
X107500Y134000D01*
X105500Y135000D01*
X103500Y134000D01*
X93500D02*
X94500Y136000D01*
X93500Y138000D01*
X95500Y137000D01*
X97500Y138000D01*
X96500Y136000D01*
X97500Y134000D01*
X95500Y135000D01*
X93500Y134000D01*
X83500D02*
X84500Y136000D01*
X83500Y138000D01*
X85500Y137000D01*
X87500Y138000D01*
X86500Y136000D01*
X87500Y134000D01*
X85500Y135000D01*
X83500Y134000D01*
X73500D02*
X74500Y136000D01*
X73500Y138000D01*
X75500Y137000D01*
X77500Y138000D01*
X76500Y136000D01*
X77500Y134000D01*
X75500Y135000D01*
X73500Y134000D01*
X213500Y34000D02*
X214500Y36000D01*
X213500Y38000D01*
X215500Y37000D01*
X217500Y38000D01*
X216500Y36000D01*
X217500Y34000D01*
X215500Y35000D01*
X213500Y34000D01*
X203500D02*
X204500Y36000D01*
X203500Y38000D01*
X205500Y37000D01*
X207500Y38000D01*
X206500Y36000D01*
X207500Y34000D01*
X205500Y35000D01*
X203500Y34000D01*
X193500D02*
X194500Y36000D01*
X193500Y38000D01*
X195500Y37000D01*
X197500Y38000D01*
X196500Y36000D01*
X197500Y34000D01*
X195500Y35000D01*
X193500Y34000D01*
X183500D02*
X184500Y36000D01*
X183500Y38000D01*
X185500Y37000D01*
X187500Y38000D01*
X186500Y36000D01*
X187500Y34000D01*
X185500Y35000D01*
X183500Y34000D01*
X173500D02*
X174500Y36000D01*
X173500Y38000D01*
X175500Y37000D01*
X177500Y38000D01*
X176500Y36000D01*
X177500Y34000D01*
X175500Y35000D01*
X173500Y34000D01*
X163500D02*
X164500Y36000D01*
X163500Y38000D01*
X165500Y37000D01*
X167500Y38000D01*
X166500Y36000D01*
X167500Y34000D01*
X165500Y35000D01*
X163500Y34000D01*
X153500D02*
X154500Y36000D01*
X153500Y38000D01*
X155500Y37000D01*
X157500Y38000D01*
X156500Y36000D01*
X157500Y34000D01*
X155500Y35000D01*
X153500Y34000D01*
X143500D02*
X144500Y36000D01*
X143500Y38000D01*
X145500Y37000D01*
X147500Y38000D01*
X146500Y36000D01*
X147500Y34000D01*
X145500Y35000D01*
X143500Y34000D01*
X133500D02*
X134500Y36000D01*
X133500Y38000D01*
X135500Y37000D01*
X137500Y38000D01*
X136500Y36000D01*
X137500Y34000D01*
X135500Y35000D01*
X133500Y34000D01*
X123500D02*
X124500Y36000D01*
X123500Y38000D01*
X125500Y37000D01*
X127500Y38000D01*
X126500Y36000D01*
X127500Y34000D01*
X125500Y35000D01*
X123500Y34000D01*
X113500D02*
X114500Y36000D01*
X113500Y38000D01*
X115500Y37000D01*
X117500Y38000D01*
X116500Y36000D01*
X117500Y34000D01*
X115500Y35000D01*
X113500Y34000D01*
X103500D02*
X104500Y36000D01*
X103500Y38000D01*
X105500Y37000D01*
X107500Y38000D01*
X106500Y36000D01*
X107500Y34000D01*
X105500Y35000D01*
X103500Y34000D01*
X93500D02*
X94500Y36000D01*
X93500Y38000D01*
X95500Y37000D01*
X97500Y38000D01*
X96500Y36000D01*
X97500Y34000D01*
X95500Y35000D01*
X93500Y34000D01*
X83500D02*
X84500Y36000D01*
X83500Y38000D01*
X85500Y37000D01*
X87500Y38000D01*
X86500Y36000D01*
X87500Y34000D01*
X85500Y35000D01*
X83500Y34000D01*
X73500D02*
X74500Y36000D01*
X73500Y38000D01*
X75500Y37000D01*
X77500Y38000D01*
X76500Y36000D01*
X77500Y34000D01*
X75500Y35000D01*
X73500Y34000D01*
X288500Y173000D02*
Y172000D01*
X290500D01*
Y173000D01*
X291500D01*
Y175000D01*
X290500D01*
Y176000D01*
X288500D01*
Y175000D01*
X287500D01*
Y173000D01*
X288500D01*
X279000Y164500D02*
Y163500D01*
X281000D01*
Y164500D01*
X282000D01*
Y166500D01*
X281000D01*
Y167500D01*
X279000D01*
Y166500D01*
X278000D01*
Y164500D01*
X279000D01*
X288500Y156000D02*
Y155000D01*
X290500D01*
Y156000D01*
X291500D01*
Y158000D01*
X290500D01*
Y159000D01*
X288500D01*
Y158000D01*
X287500D01*
Y156000D01*
X288500D01*
X302500Y157000D02*
X300500Y161000D01*
X304500D01*
X302500Y157000D01*
Y127000D02*
X300500Y131000D01*
X304500D01*
X302500Y127000D01*
X323000Y164500D02*
Y168500D01*
X327000D01*
Y164500D01*
X323000D01*
Y119500D02*
Y123500D01*
X327000D01*
Y119500D01*
X323000D01*
X315000Y142500D02*
Y146500D01*
X319000D01*
Y142500D01*
X315000D01*
X371000Y164500D02*
Y168500D01*
X375000D01*
Y164500D01*
X371000D01*
Y119500D02*
Y123500D01*
X375000D01*
Y119500D01*
X371000D01*
X275500Y176500D02*
Y175500D01*
X277500D01*
Y176500D01*
X278500D01*
Y178500D01*
X277500D01*
Y179500D01*
X275500D01*
Y178500D01*
X274500D01*
Y176500D01*
X275500D01*
X245500D02*
Y175500D01*
X247500D01*
Y176500D01*
X248500D01*
Y178500D01*
X247500D01*
Y179500D01*
X245500D01*
Y178500D01*
X244500D01*
Y176500D01*
X245500D01*
X102500Y232500D02*
Y231500D01*
X104500D01*
Y232500D01*
X105500D01*
Y234500D01*
X104500D01*
Y235500D01*
X102500D01*
Y234500D01*
X101500D01*
Y232500D01*
X102500D01*
X112000Y224000D02*
Y223000D01*
X114000D01*
Y224000D01*
X115000D01*
Y226000D01*
X114000D01*
Y227000D01*
X112000D01*
Y226000D01*
X111000D01*
Y224000D01*
X112000D01*
X102500Y215500D02*
Y214500D01*
X104500D01*
Y215500D01*
X105500D01*
Y217500D01*
X104500D01*
Y218500D01*
X102500D01*
Y217500D01*
X101500D01*
Y215500D01*
X102500D01*
X133500Y241000D02*
X131500Y245000D01*
X135500D01*
X133500Y241000D01*
X103500D02*
X101500Y245000D01*
X105500D01*
X103500Y241000D01*
X128000Y201000D02*
Y200000D01*
X130000D01*
Y201000D01*
X131000D01*
Y203000D01*
X130000D01*
Y204000D01*
X128000D01*
Y203000D01*
X127000D01*
Y201000D01*
X128000D01*
Y231000D02*
Y230000D01*
X130000D01*
Y231000D01*
X131000D01*
Y233000D01*
X130000D01*
Y234000D01*
X128000D01*
Y233000D01*
X127000D01*
Y231000D01*
X128000D01*
X152000Y239500D02*
Y238500D01*
X154000D01*
Y239500D01*
X155000D01*
Y241500D01*
X154000D01*
Y242500D01*
X152000D01*
Y241500D01*
X151000D01*
Y239500D01*
X152000D01*
X161500Y231000D02*
Y230000D01*
X163500D01*
Y231000D01*
X164500D01*
Y233000D01*
X163500D01*
Y234000D01*
X161500D01*
Y233000D01*
X160500D01*
Y231000D01*
X161500D01*
X152000Y222500D02*
Y221500D01*
X154000D01*
Y222500D01*
X155000D01*
Y224500D01*
X154000D01*
Y225500D01*
X152000D01*
Y224500D01*
X151000D01*
Y222500D01*
X152000D01*
X140000Y201000D02*
Y200000D01*
X142000D01*
Y201000D01*
X143000D01*
Y203000D01*
X142000D01*
Y204000D01*
X140000D01*
Y203000D01*
X139000D01*
Y201000D01*
X140000D01*
Y231000D02*
Y230000D01*
X142000D01*
Y231000D01*
X143000D01*
Y233000D01*
X142000D01*
Y234000D01*
X140000D01*
Y233000D01*
X139000D01*
Y231000D01*
X140000D01*
X197000Y242000D02*
X195000Y246000D01*
X199000D01*
X197000Y242000D01*
X167000D02*
X165000Y246000D01*
X169000D01*
X167000Y242000D01*
X173500Y231000D02*
Y230000D01*
X175500D01*
Y231000D01*
X176500D01*
Y233000D01*
X175500D01*
Y234000D01*
X173500D01*
Y233000D01*
X172500D01*
Y231000D01*
X173500D01*
X203500D02*
Y230000D01*
X205500D01*
Y231000D01*
X206500D01*
Y233000D01*
X205500D01*
Y234000D01*
X203500D01*
Y233000D01*
X202500D01*
Y231000D01*
X203500D01*
X218500Y239500D02*
Y238500D01*
X220500D01*
Y239500D01*
X221500D01*
Y241500D01*
X220500D01*
Y242500D01*
X218500D01*
Y241500D01*
X217500D01*
Y239500D01*
X218500D01*
X228000Y231000D02*
Y230000D01*
X230000D01*
Y231000D01*
X231000D01*
Y233000D01*
X230000D01*
Y234000D01*
X228000D01*
Y233000D01*
X227000D01*
Y231000D01*
X228000D01*
X218500Y222500D02*
Y221500D01*
X220500D01*
Y222500D01*
X221500D01*
Y224500D01*
X220500D01*
Y225500D01*
X218500D01*
Y224500D01*
X217500D01*
Y222500D01*
X218500D01*
X260500Y242000D02*
X258500Y246000D01*
X262500D01*
X260500Y242000D01*
X230500D02*
X228500Y246000D01*
X232500D01*
X230500Y242000D01*
X254000Y201500D02*
Y200500D01*
X256000D01*
Y201500D01*
X257000D01*
Y203500D01*
X256000D01*
Y204500D01*
X254000D01*
Y203500D01*
X253000D01*
Y201500D01*
X254000D01*
Y231500D02*
Y230500D01*
X256000D01*
Y231500D01*
X257000D01*
Y233500D01*
X256000D01*
Y234500D01*
X254000D01*
Y233500D01*
X253000D01*
Y231500D01*
X254000D01*
X278000Y240000D02*
Y239000D01*
X280000D01*
Y240000D01*
X281000D01*
Y242000D01*
X280000D01*
Y243000D01*
X278000D01*
Y242000D01*
X277000D01*
Y240000D01*
X278000D01*
X287500Y231500D02*
Y230500D01*
X289500D01*
Y231500D01*
X290500D01*
Y233500D01*
X289500D01*
Y234500D01*
X287500D01*
Y233500D01*
X286500D01*
Y231500D01*
X287500D01*
X278000Y223000D02*
Y222000D01*
X280000D01*
Y223000D01*
X281000D01*
Y225000D01*
X280000D01*
Y226000D01*
X278000D01*
Y225000D01*
X277000D01*
Y223000D01*
X278000D01*
X324000Y242500D02*
X322000Y246500D01*
X326000D01*
X324000Y242500D01*
X294000D02*
X292000Y246500D01*
X296000D01*
X294000Y242500D01*
X245500Y190500D02*
Y189500D01*
X247500D01*
Y190500D01*
X248500D01*
Y192500D01*
X247500D01*
Y193500D01*
X245500D01*
Y192500D01*
X244500D01*
Y190500D01*
X245500D01*
X275500D02*
Y189500D01*
X277500D01*
Y190500D01*
X278500D01*
Y192500D01*
X277500D01*
Y193500D01*
X275500D01*
Y192500D01*
X274500D01*
Y190500D01*
X275500D01*
X302500Y190000D02*
X300500Y194000D01*
X304500D01*
X302500Y190000D01*
Y220000D02*
X300500Y224000D01*
X304500D01*
X302500Y220000D01*
X289000Y195500D02*
Y194500D01*
X291000D01*
Y195500D01*
X292000D01*
Y197500D01*
X291000D01*
Y198500D01*
X289000D01*
Y197500D01*
X288000D01*
Y195500D01*
X289000D01*
X279500Y204000D02*
Y203000D01*
X281500D01*
Y204000D01*
X282500D01*
Y206000D01*
X281500D01*
Y207000D01*
X279500D01*
Y206000D01*
X278500D01*
Y204000D01*
X279500D01*
X289000Y212500D02*
Y211500D01*
X291000D01*
Y212500D01*
X292000D01*
Y214500D01*
X291000D01*
Y215500D01*
X289000D01*
Y214500D01*
X288000D01*
Y212500D01*
X289000D01*
X371000Y183000D02*
Y187000D01*
X375000D01*
Y183000D01*
X371000D01*
Y228000D02*
Y232000D01*
X375000D01*
Y228000D01*
X371000D01*
X315000Y206000D02*
Y210000D01*
X319000D01*
Y206000D01*
X315000D01*
X323000Y183000D02*
Y187000D01*
X327000D01*
Y183000D01*
X323000D01*
Y228000D02*
Y232000D01*
X327000D01*
Y228000D01*
X323000D01*
X371500Y73500D02*
X373500Y75500D01*
X375500Y73500D01*
X373500Y71500D01*
X371500Y73500D01*
Y63500D02*
X373500Y65500D01*
X375500Y63500D01*
X373500Y61500D01*
X371500Y63500D01*
Y83500D02*
X373500Y85500D01*
X375500Y83500D01*
X373500Y81500D01*
X371500Y83500D01*
Y93500D02*
X373500Y95500D01*
X375500Y93500D01*
X373500Y91500D01*
X371500Y93500D01*
Y103500D02*
X373500Y105500D01*
X375500Y103500D01*
X373500Y101500D01*
X371500Y103500D01*
X337500Y78500D02*
X339500Y80500D01*
X341500Y78500D01*
X339500Y76500D01*
X337500Y78500D01*
Y88500D02*
X339500Y90500D01*
X341500Y88500D01*
X339500Y86500D01*
X337500Y88500D01*
Y98500D02*
X339500Y100500D01*
X341500Y98500D01*
X339500Y96500D01*
X337500Y98500D01*
X300500Y78500D02*
X302500Y80500D01*
X304500Y78500D01*
X302500Y76500D01*
X300500Y78500D01*
Y88500D02*
X302500Y90500D01*
X304500Y88500D01*
X302500Y86500D01*
X300500Y88500D01*
Y98500D02*
X302500Y100500D01*
X304500Y98500D01*
X302500Y96500D01*
X300500Y98500D01*
X262500Y12500D02*
X263500D01*
X264500Y13500D01*
X265500Y12500D01*
X266500D01*
Y13500D01*
X265500Y14500D01*
X266500Y15500D01*
Y16500D01*
X265500D01*
X264500Y15500D01*
X263500Y16500D01*
X262500D01*
Y15500D01*
X263500Y14500D01*
X262500Y13500D01*
Y12500D01*
X222500D02*
X223500D01*
X224500Y13500D01*
X225500Y12500D01*
X226500D01*
Y13500D01*
X225500Y14500D01*
X226500Y15500D01*
Y16500D01*
X225500D01*
X224500Y15500D01*
X223500Y16500D01*
X222500D01*
Y15500D01*
X223500Y14500D01*
X222500Y13500D01*
Y12500D01*
X232500D02*
X233500D01*
X234500Y13500D01*
X235500Y12500D01*
X236500D01*
Y13500D01*
X235500Y14500D01*
X236500Y15500D01*
Y16500D01*
X235500D01*
X234500Y15500D01*
X233500Y16500D01*
X232500D01*
Y15500D01*
X233500Y14500D01*
X232500Y13500D01*
Y12500D01*
X242500D02*
X243500D01*
X244500Y13500D01*
X245500Y12500D01*
X246500D01*
Y13500D01*
X245500Y14500D01*
X246500Y15500D01*
Y16500D01*
X245500D01*
X244500Y15500D01*
X243500Y16500D01*
X242500D01*
Y15500D01*
X243500Y14500D01*
X242500Y13500D01*
Y12500D01*
X252500D02*
X253500D01*
X254500Y13500D01*
X255500Y12500D01*
X256500D01*
Y13500D01*
X255500Y14500D01*
X256500Y15500D01*
Y16500D01*
X255500D01*
X254500Y15500D01*
X253500Y16500D01*
X252500D01*
Y15500D01*
X253500Y14500D01*
X252500Y13500D01*
Y12500D01*
X282500D02*
X283500D01*
X284500Y13500D01*
X285500Y12500D01*
X286500D01*
Y13500D01*
X285500Y14500D01*
X286500Y15500D01*
Y16500D01*
X285500D01*
X284500Y15500D01*
X283500Y16500D01*
X282500D01*
Y15500D01*
X283500Y14500D01*
X282500Y13500D01*
Y12500D01*
X272500D02*
X273500D01*
X274500Y13500D01*
X275500Y12500D01*
X276500D01*
Y13500D01*
X275500Y14500D01*
X276500Y15500D01*
Y16500D01*
X275500D01*
X274500Y15500D01*
X273500Y16500D01*
X272500D01*
Y15500D01*
X273500Y14500D01*
X272500Y13500D01*
Y12500D01*
X292500D02*
X293500D01*
X294500Y13500D01*
X295500Y12500D01*
X296500D01*
Y13500D01*
X295500Y14500D01*
X296500Y15500D01*
Y16500D01*
X295500D01*
X294500Y15500D01*
X293500Y16500D01*
X292500D01*
Y15500D01*
X293500Y14500D01*
X292500Y13500D01*
Y12500D01*
X13000Y143500D02*
X15000Y145500D01*
X17000Y143500D01*
X15000Y141500D01*
X13000Y143500D01*
Y153500D02*
X15000Y155500D01*
X17000Y153500D01*
X15000Y151500D01*
X13000Y153500D01*
Y133500D02*
X15000Y135500D01*
X17000Y133500D01*
X15000Y131500D01*
X13000Y133500D01*
Y123500D02*
X15000Y125500D01*
X17000Y123500D01*
X15000Y121500D01*
X13000Y123500D01*
Y113500D02*
X15000Y115500D01*
X17000Y113500D01*
X15000Y111500D01*
X13000Y113500D01*
X144000Y311500D02*
Y315500D01*
X148000D01*
Y311500D01*
X144000D01*
X99000D02*
Y315500D01*
X103000D01*
Y311500D01*
X99000D01*
X121000Y255500D02*
Y259500D01*
X125000D01*
Y255500D01*
X121000D01*
X144000Y263500D02*
Y267500D01*
X148000D01*
Y263500D01*
X144000D01*
X99000D02*
Y267500D01*
X103000D01*
Y263500D01*
X99000D01*
X207000Y311500D02*
Y315500D01*
X211000D01*
Y311500D01*
X207000D01*
X162000D02*
Y315500D01*
X166000D01*
Y311500D01*
X162000D01*
X184000Y255500D02*
Y259500D01*
X188000D01*
Y255500D01*
X184000D01*
X207000Y263500D02*
Y267500D01*
X211000D01*
Y263500D01*
X207000D01*
X162000D02*
Y267500D01*
X166000D01*
Y263500D01*
X162000D01*
X270000Y311500D02*
Y315500D01*
X274000D01*
Y311500D01*
X270000D01*
X225000D02*
Y315500D01*
X229000D01*
Y311500D01*
X225000D01*
X247000Y255500D02*
Y259500D01*
X251000D01*
Y255500D01*
X247000D01*
X270000Y263500D02*
Y267500D01*
X274000D01*
Y263500D01*
X270000D01*
X225000D02*
Y267500D01*
X229000D01*
Y263500D01*
X225000D01*
X333000Y311500D02*
Y315500D01*
X337000D01*
Y311500D01*
X333000D01*
X288000D02*
Y315500D01*
X292000D01*
Y311500D01*
X288000D01*
X310000Y255500D02*
Y259500D01*
X314000D01*
Y255500D01*
X310000D01*
X333000Y263500D02*
Y267500D01*
X337000D01*
Y263500D01*
X333000D01*
X288000D02*
Y267500D01*
X292000D01*
Y263500D01*
X288000D01*
X10528Y196752D02*
X12528Y198752D01*
X14528Y196752D01*
X12528Y194752D01*
X10528Y196752D01*
X71157D02*
X73157Y198752D01*
X75157Y196752D01*
X73157Y194752D01*
X71157Y196752D01*
X31000Y312500D02*
X33000Y314500D01*
X35000Y312500D01*
X33000Y310500D01*
X31000Y312500D01*
X50685D02*
X52685Y314500D01*
X54685Y312500D01*
X52685Y310500D01*
X50685Y312500D01*
X66500Y158000D02*
Y157000D01*
X68500D01*
Y158000D01*
X69500D01*
Y160000D01*
X68500D01*
Y161000D01*
X66500D01*
Y160000D01*
X65500D01*
Y158000D01*
X66500D01*
X96500D02*
Y157000D01*
X98500D01*
Y158000D01*
X99500D01*
Y160000D01*
X98500D01*
Y161000D01*
X96500D01*
Y160000D01*
X95500D01*
Y158000D01*
X96500D01*
X8315Y340000D02*
Y339000D01*
X10315D01*
Y340000D01*
X11315D01*
Y342000D01*
X10315D01*
Y343000D01*
X8315D01*
Y342000D01*
X7315D01*
Y340000D01*
X8315D01*
X28000D02*
Y339000D01*
X30000D01*
Y340000D01*
X31000D01*
Y342000D01*
X30000D01*
Y343000D01*
X28000D01*
Y342000D01*
X27000D01*
Y340000D01*
X28000D01*
X17685Y17685D02*
Y21685D01*
X21685D01*
Y17685D01*
X17685D01*
X18485Y18485D02*
Y20885D01*
X20885D01*
Y18485D01*
X18485D01*
X17685Y372016D02*
Y376016D01*
X21685D01*
Y372016D01*
X17685D01*
X18485Y372816D02*
Y375216D01*
X20885D01*
Y372816D01*
X18485D01*
X372016Y372016D02*
Y376016D01*
X376016D01*
Y372016D01*
X372016D01*
X372816Y372816D02*
Y375216D01*
X375216D01*
Y372816D01*
X372816D01*
X372016Y17685D02*
Y21685D01*
X376016D01*
Y17685D01*
X372016D01*
X372816Y18485D02*
Y20885D01*
X375216D01*
Y18485D01*
X372816D01*
X165500Y85000D02*
X166500Y86000D01*
X167500D01*
X166500Y87000D01*
X167500Y88000D01*
X166500D01*
X165500Y89000D01*
X164500Y88000D01*
X163500D01*
X164500Y87000D01*
X163500Y86000D01*
X164500D01*
X165500Y85000D01*
X264000Y56000D02*
X265000Y57000D01*
X266000D01*
X265000Y58000D01*
X266000Y59000D01*
X265000D01*
X264000Y60000D01*
X263000Y59000D01*
X262000D01*
X263000Y58000D01*
X262000Y57000D01*
X263000D01*
X264000Y56000D01*
Y48000D02*
X265000Y49000D01*
X266000D01*
X265000Y50000D01*
X266000Y51000D01*
X265000D01*
X264000Y52000D01*
X263000Y51000D01*
X262000D01*
X263000Y50000D01*
X262000Y49000D01*
X263000D01*
X264000Y48000D01*
X285500Y118500D02*
X286500Y119500D01*
X287500D01*
X286500Y120500D01*
X287500Y121500D01*
X286500D01*
X285500Y122500D01*
X284500Y121500D01*
X283500D01*
X284500Y120500D01*
X283500Y119500D01*
X284500D01*
X285500Y118500D01*
X248000D02*
X249000Y119500D01*
X250000D01*
X249000Y120500D01*
X250000Y121500D01*
X249000D01*
X248000Y122500D01*
X247000Y121500D01*
X246000D01*
X247000Y120500D01*
X246000Y119500D01*
X247000D01*
X248000Y118500D01*
X235500Y77500D02*
X236500Y78500D01*
X237500D01*
X236500Y79500D01*
X237500Y80500D01*
X236500D01*
X235500Y81500D01*
X234500Y80500D01*
X233500D01*
X234500Y79500D01*
X233500Y78500D01*
X234500D01*
X235500Y77500D01*
X227000D02*
X228000Y78500D01*
X229000D01*
X228000Y79500D01*
X229000Y80500D01*
X228000D01*
X227000Y81500D01*
X226000Y80500D01*
X225000D01*
X226000Y79500D01*
X225000Y78500D01*
X226000D01*
X227000Y77500D01*
X235000Y152500D02*
X236000Y153500D01*
X237000D01*
X236000Y154500D01*
X237000Y155500D01*
X236000D01*
X235000Y156500D01*
X234000Y155500D01*
X233000D01*
X234000Y154500D01*
X233000Y153500D01*
X234000D01*
X235000Y152500D01*
X227000D02*
X228000Y153500D01*
X229000D01*
X228000Y154500D01*
X229000Y155500D01*
X228000D01*
X227000Y156500D01*
X226000Y155500D01*
X225000D01*
X226000Y154500D01*
X225000Y153500D01*
X226000D01*
X227000Y152500D01*
X189500Y186000D02*
X190500Y187000D01*
X191500D01*
X190500Y188000D01*
X191500Y189000D01*
X190500D01*
X189500Y190000D01*
X188500Y189000D01*
X187500D01*
X188500Y188000D01*
X187500Y187000D01*
X188500D01*
X189500Y186000D01*
X183000Y210500D02*
X184000Y211500D01*
X185000D01*
X184000Y212500D01*
X185000Y213500D01*
X184000D01*
X183000Y214500D01*
X182000Y213500D01*
X181000D01*
X182000Y212500D01*
X181000Y211500D01*
X182000D01*
X183000Y210500D01*
X153500Y146500D02*
X154500Y147500D01*
X155500D01*
X154500Y148500D01*
X155500Y149500D01*
X154500D01*
X153500Y150500D01*
X152500Y149500D01*
X151500D01*
X152500Y148500D01*
X151500Y147500D01*
X152500D01*
X153500Y146500D01*
X179500Y152750D02*
X180500Y153750D01*
X181500D01*
X180500Y154750D01*
X181500Y155750D01*
X180500D01*
X179500Y156750D01*
X178500Y155750D01*
X177500D01*
X178500Y154750D01*
X177500Y153750D01*
X178500D01*
X179500Y152750D01*
X202500Y203800D02*
X203500Y204800D01*
X204500D01*
X203500Y205800D01*
X204500Y206800D01*
X203500D01*
X202500Y207800D01*
X201500Y206800D01*
X200500D01*
X201500Y205800D01*
X200500Y204800D01*
X201500D01*
X202500Y203800D01*
X25810Y11560D02*
X23810Y15560D01*
X27810D01*
X25810Y11560D01*
Y12360D02*
X24610Y14760D01*
X27010D01*
X25810Y12360D01*
X13560Y11560D02*
X11560Y15560D01*
X15560D01*
X13560Y11560D01*
Y12360D02*
X12360Y14760D01*
X14760D01*
X13560Y12360D01*
X11024Y17685D02*
X9024Y21685D01*
X13024D01*
X11024Y17685D01*
Y18485D02*
X9824Y20885D01*
X12224D01*
X11024Y18485D01*
X13560Y23810D02*
X11560Y27810D01*
X15560D01*
X13560Y23810D01*
Y24610D02*
X12360Y27010D01*
X14760D01*
X13560Y24610D01*
X26006Y23908D02*
X24006Y27908D01*
X28006D01*
X26006Y23908D01*
Y24708D02*
X24806Y27108D01*
X27206D01*
X26006Y24708D01*
X28543Y17783D02*
X26543Y21783D01*
X30543D01*
X28543Y17783D01*
Y18583D02*
X27343Y20983D01*
X29743D01*
X28543Y18583D01*
X19685Y9024D02*
X17685Y13024D01*
X21685D01*
X19685Y9024D01*
Y9824D02*
X18485Y12224D01*
X20885D01*
X19685Y9824D01*
Y26346D02*
X17685Y30346D01*
X21685D01*
X19685Y26346D01*
Y27146D02*
X18485Y29546D01*
X20885D01*
X19685Y27146D01*
X25810Y365891D02*
X23810Y369891D01*
X27810D01*
X25810Y365891D01*
Y366691D02*
X24610Y369091D01*
X27010D01*
X25810Y366691D01*
X13560Y365891D02*
X11560Y369891D01*
X15560D01*
X13560Y365891D01*
Y366691D02*
X12360Y369091D01*
X14760D01*
X13560Y366691D01*
X11024Y372016D02*
X9024Y376016D01*
X13024D01*
X11024Y372016D01*
Y372816D02*
X9824Y375216D01*
X12224D01*
X11024Y372816D01*
X13560Y378140D02*
X11560Y382140D01*
X15560D01*
X13560Y378140D01*
Y378940D02*
X12360Y381340D01*
X14760D01*
X13560Y378940D01*
X26006Y378239D02*
X24006Y382239D01*
X28006D01*
X26006Y378239D01*
Y379039D02*
X24806Y381439D01*
X27206D01*
X26006Y379039D01*
X28543Y372114D02*
X26543Y376114D01*
X30543D01*
X28543Y372114D01*
Y372914D02*
X27343Y375314D01*
X29743D01*
X28543Y372914D01*
X19685Y363354D02*
X17685Y367354D01*
X21685D01*
X19685Y363354D01*
Y364154D02*
X18485Y366554D01*
X20885D01*
X19685Y364154D01*
Y380677D02*
X17685Y384677D01*
X21685D01*
X19685Y380677D01*
Y381477D02*
X18485Y383877D01*
X20885D01*
X19685Y381477D01*
X380140Y365891D02*
X378140Y369891D01*
X382140D01*
X380140Y365891D01*
Y366691D02*
X378940Y369091D01*
X381340D01*
X380140Y366691D01*
X367891Y365891D02*
X365891Y369891D01*
X369891D01*
X367891Y365891D01*
Y366691D02*
X366691Y369091D01*
X369091D01*
X367891Y366691D01*
X365354Y372016D02*
X363354Y376016D01*
X367354D01*
X365354Y372016D01*
Y372816D02*
X364154Y375216D01*
X366554D01*
X365354Y372816D01*
X367891Y378140D02*
X365891Y382140D01*
X369891D01*
X367891Y378140D01*
Y378940D02*
X366691Y381340D01*
X369091D01*
X367891Y378940D01*
X380337Y378239D02*
X378337Y382239D01*
X382337D01*
X380337Y378239D01*
Y379039D02*
X379137Y381439D01*
X381537D01*
X380337Y379039D01*
X382874Y372114D02*
X380874Y376114D01*
X384874D01*
X382874Y372114D01*
Y372914D02*
X381674Y375314D01*
X384074D01*
X382874Y372914D01*
X374016Y363354D02*
X372016Y367354D01*
X376016D01*
X374016Y363354D01*
Y364154D02*
X372816Y366554D01*
X375216D01*
X374016Y364154D01*
Y380677D02*
X372016Y384677D01*
X376016D01*
X374016Y380677D01*
Y381477D02*
X372816Y383877D01*
X375216D01*
X374016Y381477D01*
X380140Y11560D02*
X378140Y15560D01*
X382140D01*
X380140Y11560D01*
Y12360D02*
X378940Y14760D01*
X381340D01*
X380140Y12360D01*
X367891Y11560D02*
X365891Y15560D01*
X369891D01*
X367891Y11560D01*
Y12360D02*
X366691Y14760D01*
X369091D01*
X367891Y12360D01*
X365354Y17685D02*
X363354Y21685D01*
X367354D01*
X365354Y17685D01*
Y18485D02*
X364154Y20885D01*
X366554D01*
X365354Y18485D01*
X367891Y23810D02*
X365891Y27810D01*
X369891D01*
X367891Y23810D01*
Y24610D02*
X366691Y27010D01*
X369091D01*
X367891Y24610D01*
X380337Y23908D02*
X378337Y27908D01*
X382337D01*
X380337Y23908D01*
Y24708D02*
X379137Y27108D01*
X381537D01*
X380337Y24708D01*
X382874Y17783D02*
X380874Y21783D01*
X384874D01*
X382874Y17783D01*
Y18583D02*
X381674Y20983D01*
X384074D01*
X382874Y18583D01*
X374016Y9024D02*
X372016Y13024D01*
X376016D01*
X374016Y9024D01*
Y9824D02*
X372816Y12224D01*
X375216D01*
X374016Y9824D01*
Y26346D02*
X372016Y30346D01*
X376016D01*
X374016Y26346D01*
Y27146D02*
X372816Y29546D01*
X375216D01*
X374016Y27146D01*
D55*
X387000Y299000D02*
G03*
X387000Y299000I-2000J0D01*
G01*
Y269000D02*
G03*
X387000Y269000I-2000J0D01*
G01*
X367000Y299000D02*
G03*
X367000Y299000I-2000J0D01*
G01*
Y269000D02*
G03*
X367000Y269000I-2000J0D01*
G01*
X112000Y181000D02*
G03*
X112000Y181000I-2000J0D01*
G01*
Y191000D02*
G03*
X112000Y191000I-2000J0D01*
G01*
X79000Y384000D02*
G03*
X79000Y384000I-2000J0D01*
G01*
Y354000D02*
G03*
X79000Y354000I-2000J0D01*
G01*
X59000Y384000D02*
G03*
X59000Y384000I-2000J0D01*
G01*
Y354000D02*
G03*
X59000Y354000I-2000J0D01*
G01*
X133000Y384000D02*
G03*
X133000Y384000I-2000J0D01*
G01*
Y354000D02*
G03*
X133000Y354000I-2000J0D01*
G01*
X113000Y384000D02*
G03*
X113000Y384000I-2000J0D01*
G01*
Y354000D02*
G03*
X113000Y354000I-2000J0D01*
G01*
X186500Y384000D02*
G03*
X186500Y384000I-2000J0D01*
G01*
Y354000D02*
G03*
X186500Y354000I-2000J0D01*
G01*
X166500Y384000D02*
G03*
X166500Y384000I-2000J0D01*
G01*
Y354000D02*
G03*
X166500Y354000I-2000J0D01*
G01*
X240000Y384000D02*
G03*
X240000Y384000I-2000J0D01*
G01*
Y354000D02*
G03*
X240000Y354000I-2000J0D01*
G01*
X220000Y384000D02*
G03*
X220000Y384000I-2000J0D01*
G01*
Y354000D02*
G03*
X220000Y354000I-2000J0D01*
G01*
X293500Y384000D02*
G03*
X293500Y384000I-2000J0D01*
G01*
Y354000D02*
G03*
X293500Y354000I-2000J0D01*
G01*
X273500Y384000D02*
G03*
X273500Y384000I-2000J0D01*
G01*
Y354000D02*
G03*
X273500Y354000I-2000J0D01*
G01*
X347000Y384000D02*
G03*
X347000Y384000I-2000J0D01*
G01*
Y354000D02*
G03*
X347000Y354000I-2000J0D01*
G01*
X327000Y384000D02*
G03*
X327000Y384000I-2000J0D01*
G01*
Y354000D02*
G03*
X327000Y354000I-2000J0D01*
G01*
D56*
X111200Y181000D02*
G03*
X111200Y181000I-1200J0D01*
G01*
Y191000D02*
G03*
X111200Y191000I-1200J0D01*
G01*
M02*
