M48
;Layer_Color=9474304
;FILE_FORMAT=2:4
INCH,TZ
;TYPE=PLATED
T01F00S00C0.0157
T02F00S00C0.0276
T03F00S00C0.0280
T04F00S00C0.0315
T05F00S00C0.0320
T06F00S00C0.0354
T07F00S00C0.0394
T08F00S00C0.0402
T09F00S00C0.0520
T10F00S00C0.0591
T11F00S00C0.1260
%
T01
X1356Y1356
X1102Y1969
X1356Y2581
X2601Y2591
X2854Y1978
X2581Y1356
X1969Y1102
X36789Y1356
X36535Y1969
X36789Y2581
X38034Y2591
X38287Y1978
X38014Y1356
X37402Y1102
Y2835
X1969
X36789Y36789
X36535Y37402
X36789Y38014
X37402Y38268
X38034Y38024
X38287Y37411
X38014Y36789
X37402Y36535
X2581Y36789
X1969Y36535
X1356Y36789
X1102Y37402
X1356Y38014
X1969Y38268
X2601Y38024
X2854Y37411
T02
X30250Y12900
Y15900
X16700Y24400
X13350Y24300
X10350
X19700Y24400
X23050
X26050
X29400Y24450
X32400
X30250Y22200
Y19200
T03
X22700Y7950
X23550
X26400Y5800
Y5000
X24800Y12050
X28550
X23500Y15450
X22700
X17950Y15475
X15350Y14850
X16550Y8700
X18950Y18800
X18300Y21250
X20250Y20580
T04
X24650Y17750
X27650
X28000Y16550
X28950Y17400
Y15700
X9750Y15900
X6750
X10350Y21650
Y23350
X11300Y22500
X12900Y23200
X14100
X15300Y24050
Y22350
X16250Y23200
X17450
X14100Y20200
X12900
X20450Y23200
X21950Y24050
Y22350
X22900Y23200
X25500Y23250
Y20250
X24650Y19150
X27650
X28050Y20500
X29000Y19650
Y21350
X28850Y23250
X27900Y24100
Y22400
X2900Y34100
X931
T05
X22450Y1450
X23450
X24450
X25450
X26450
X27450
X28450
X29450
T06
X11000Y18100
Y19100
T07
X37350Y6350
Y7350
Y8350
Y9350
Y10350
X33950Y9850
Y8850
Y7850
X30250
Y8850
Y9850
X8024Y17392
X938
X1500Y15350
Y14350
Y13350
Y12350
Y11350
X1253Y19675
X3300Y31250
X5268
X5662
X7316Y19675
T08
X19550Y3600
X20550
X21550
Y13600
X20550
X19550
X18550
X17550
X16550
X15550
X14550
X13550
X12550
X11550
X10550
X9550
X8550
X7550
Y3600
X8550
X9550
X10550
X11550
X12550
X13550
X14550
X15550
X16550
X17550
X18550
T09
X37300Y12150
Y16650
X32500
X31700Y14450
X32500Y12150
X18600Y25750
X16400Y26550
X14600
X12300Y25750
X10100Y26550
Y31350
X14600
X16400
X20900
X22700
X27200
X29000
X33500
Y26550
X31200Y25750
X29000Y26550
X27200
X24900Y25750
X22700Y26550
X20900
X32500Y23000
X31700Y20800
X32500Y18500
X37300
Y23000
T10
X36500Y26900
X38500
Y29900
X36500
X34500Y35400
X32500
Y38400
X34500
X29150
X27150
Y35400
X29150
X23800
X21800
Y38400
X23800
X18450
X16450
Y35400
X18450
X13100
X11100
Y38400
X13100
X7700
X5700
Y35400
X7700
T11
X1969Y1969
X37402
Y37402
X1969
M30
