G04*
G04 #@! TF.GenerationSoftware,Altium Limited,Altium Designer,24.3.1 (35)*
G04*
G04 Layer_Color=65535*
%FSLAX25Y25*%
%MOIN*%
G70*
G04*
G04 #@! TF.SameCoordinates,1CC19C7B-97DE-4EE6-9EAD-702A75026B31*
G04*
G04*
G04 #@! TF.FilePolarity,Positive*
G04*
G01*
G75*
%ADD10C,0.00787*%
%ADD11C,0.00984*%
%ADD12C,0.01000*%
%ADD13C,0.00500*%
%ADD14C,0.01200*%
%ADD15C,0.00984*%
%ADD16C,0.01575*%
%ADD17R,0.08000X0.03000*%
%ADD18R,0.03000X0.08000*%
D10*
X75894Y27535D02*
G03*
X75894Y27535I-394J0D01*
G01*
X295406Y173295D02*
G03*
X295406Y157705I-5906J-7795D01*
G01*
X97594Y217205D02*
G03*
X97594Y232795I5906J7795D01*
G01*
X147095Y224205D02*
G03*
X147095Y239795I5906J7795D01*
G01*
X213595Y224205D02*
G03*
X213595Y239795I5906J7795D01*
G01*
X273095Y224705D02*
G03*
X273095Y240295I5906J7795D01*
G01*
X295905Y212795D02*
G03*
X295905Y197205I-5906J-7795D01*
G01*
X295406Y157705D02*
Y173295D01*
X201685Y184457D02*
Y191543D01*
X162315Y184457D02*
Y191543D01*
X201685D01*
X162315Y184457D02*
X201685D01*
X97594Y217205D02*
Y232795D01*
X147094Y224205D02*
Y239795D01*
X213594Y224205D02*
Y239795D01*
X273094Y224705D02*
Y240295D01*
X295906Y197205D02*
Y212795D01*
X386098Y58382D02*
Y69602D01*
X383736Y58382D02*
Y69504D01*
Y69701D02*
X386000D01*
X363500Y58382D02*
Y88382D01*
Y58382D02*
X386098D01*
X383736Y69504D02*
Y77476D01*
X363500Y78382D02*
Y98461D01*
X383736Y100783D02*
Y108362D01*
Y77654D02*
Y100783D01*
X363500Y108461D02*
X386098D01*
X363500Y88382D02*
Y108461D01*
X386030Y97132D02*
Y108352D01*
X383717Y97152D02*
X385980D01*
X2402Y147398D02*
Y158618D01*
X4764Y147496D02*
Y158618D01*
X2500Y147299D02*
X4764D01*
X25000Y128618D02*
Y158618D01*
X2402D02*
X25000D01*
X4764Y139524D02*
Y147496D01*
X25000Y118539D02*
Y138618D01*
X4764Y108638D02*
Y116217D01*
Y139346D01*
X2402Y108539D02*
X25000D01*
Y128618D01*
X2470Y108648D02*
Y119868D01*
X2520Y119848D02*
X4783D01*
X215528Y180835D02*
Y187134D01*
Y171386D02*
Y177685D01*
X206472Y180835D02*
Y187134D01*
Y171386D02*
Y177685D01*
Y187134D02*
X215528D01*
X206472Y171386D02*
X215528D01*
X206472Y188866D02*
Y195165D01*
Y198315D02*
Y204614D01*
X215528Y188866D02*
Y195165D01*
Y198315D02*
Y204614D01*
X206472Y188866D02*
X215528D01*
X206472Y204614D02*
X215528D01*
X259528Y141335D02*
Y147634D01*
Y131886D02*
Y138185D01*
X250472Y141335D02*
Y147634D01*
Y131886D02*
Y138185D01*
Y147634D02*
X259528D01*
X250472Y131886D02*
X259528D01*
X221099Y176786D02*
X220912Y177161D01*
X220537Y177536D01*
X220162Y177724D01*
X219412D01*
X219037Y177536D01*
X218662Y177161D01*
X218475Y176786D01*
X218287Y176224D01*
Y175287D01*
X218475Y174725D01*
X218662Y174350D01*
X219037Y173975D01*
X219412Y173787D01*
X220162D01*
X220537Y173975D01*
X220912Y174350D01*
X221099Y174725D01*
Y175287D01*
X220162D02*
X221099D01*
X221999Y177724D02*
Y173787D01*
Y177724D02*
X224623Y173787D01*
Y177724D02*
Y173787D01*
X225710Y177724D02*
Y173787D01*
Y177724D02*
X227022D01*
X227584Y177536D01*
X227959Y177161D01*
X228147Y176786D01*
X228334Y176224D01*
Y175287D01*
X228147Y174725D01*
X227959Y174350D01*
X227584Y173975D01*
X227022Y173787D01*
X225710D01*
X221099Y189286D02*
X220912Y189661D01*
X220537Y190036D01*
X220162Y190224D01*
X219412D01*
X219037Y190036D01*
X218662Y189661D01*
X218475Y189286D01*
X218287Y188724D01*
Y187787D01*
X218475Y187225D01*
X218662Y186850D01*
X219037Y186475D01*
X219412Y186287D01*
X220162D01*
X220537Y186475D01*
X220912Y186850D01*
X221099Y187225D01*
X223329Y190224D02*
X222955Y190036D01*
X222580Y189661D01*
X222392Y189286D01*
X222205Y188724D01*
Y187787D01*
X222392Y187225D01*
X222580Y186850D01*
X222955Y186475D01*
X223329Y186287D01*
X224079D01*
X224454Y186475D01*
X224829Y186850D01*
X225016Y187225D01*
X225204Y187787D01*
Y188724D01*
X225016Y189286D01*
X224829Y189661D01*
X224454Y190036D01*
X224079Y190224D01*
X223329D01*
X226122D02*
Y186287D01*
Y190224D02*
X227622Y186287D01*
X229121Y190224D02*
X227622Y186287D01*
X229121Y190224D02*
Y186287D01*
X220537Y202724D02*
X218662D01*
X218475Y201037D01*
X218662Y201224D01*
X219225Y201412D01*
X219787D01*
X220349Y201224D01*
X220724Y200849D01*
X220912Y200287D01*
Y199912D01*
X220724Y199350D01*
X220349Y198975D01*
X219787Y198787D01*
X219225D01*
X218662Y198975D01*
X218475Y199162D01*
X218287Y199537D01*
X221793Y202724D02*
X223292Y198787D01*
X224791Y202724D02*
X223292Y198787D01*
D11*
X295307Y154358D02*
G03*
X295307Y154358I-492J0D01*
G01*
X161646Y178551D02*
G03*
X161646Y178551I-492J0D01*
G01*
X98677Y236142D02*
G03*
X98677Y236142I-492J0D01*
G01*
X148177Y243142D02*
G03*
X148177Y243142I-492J0D01*
G01*
X214677D02*
G03*
X214677Y243142I-492J0D01*
G01*
X274177Y243642D02*
G03*
X274177Y243642I-492J0D01*
G01*
X295807Y193858D02*
G03*
X295807Y193858I-492J0D01*
G01*
D12*
X342000Y122500D02*
G03*
X344000Y124500I0J2000D01*
G01*
D02*
G03*
X342000Y126500I-2000J0D01*
G01*
D02*
G03*
X344000Y128500I0J2000D01*
G01*
D02*
G03*
X342000Y130500I-2000J0D01*
G01*
D02*
G03*
X344000Y132500I0J2000D01*
G01*
D02*
G03*
X342000Y134500I-2000J0D01*
G01*
D02*
G03*
X344000Y136500I0J2000D01*
G01*
D02*
G03*
X342000Y138500I-2000J0D01*
G01*
D02*
G03*
X344000Y140500I0J2000D01*
G01*
D02*
G03*
X342000Y142500I-2000J0D01*
G01*
D02*
G03*
X344000Y144500I0J2000D01*
G01*
D02*
G03*
X342000Y146500I-2000J0D01*
G01*
D02*
G03*
X344000Y148500I0J2000D01*
G01*
D02*
G03*
X342000Y150500I-2000J0D01*
G01*
D02*
G03*
X344000Y152500I0J2000D01*
G01*
D02*
G03*
X342000Y154500I-2000J0D01*
G01*
D02*
G03*
X344000Y156500I0J2000D01*
G01*
D02*
G03*
X342000Y158500I-2000J0D01*
G01*
D02*
G03*
X344000Y160500I0J2000D01*
G01*
D02*
G03*
X342000Y162500I-2000J0D01*
G01*
D02*
G03*
X344000Y164500I0J2000D01*
G01*
D02*
G03*
X342000Y166500I-2000J0D01*
G01*
X378657D02*
G03*
X378657Y166500I-5657J0D01*
G01*
X378831Y121500D02*
G03*
X378831Y121500I-5831J0D01*
G01*
X330701Y166500D02*
G03*
X330701Y166500I-5701J0D01*
G01*
X322831Y144500D02*
G03*
X322831Y144500I-5831J0D01*
G01*
X330590Y121500D02*
G03*
X330590Y121500I-5590J0D01*
G01*
X120000Y186000D02*
G03*
X120000Y186000I-10000J0D01*
G01*
X330590Y185000D02*
G03*
X330590Y185000I-5590J0D01*
G01*
X322831Y208000D02*
G03*
X322831Y208000I-5831J0D01*
G01*
X330701Y230000D02*
G03*
X330701Y230000I-5701J0D01*
G01*
X378831Y185000D02*
G03*
X378831Y185000I-5831J0D01*
G01*
X378657Y230000D02*
G03*
X378657Y230000I-5657J0D01*
G01*
X344000Y228000D02*
G03*
X342000Y230000I-2000J0D01*
G01*
Y226000D02*
G03*
X344000Y228000I0J2000D01*
G01*
Y224000D02*
G03*
X342000Y226000I-2000J0D01*
G01*
Y222000D02*
G03*
X344000Y224000I0J2000D01*
G01*
Y220000D02*
G03*
X342000Y222000I-2000J0D01*
G01*
Y218000D02*
G03*
X344000Y220000I0J2000D01*
G01*
Y216000D02*
G03*
X342000Y218000I-2000J0D01*
G01*
Y214000D02*
G03*
X344000Y216000I0J2000D01*
G01*
Y212000D02*
G03*
X342000Y214000I-2000J0D01*
G01*
Y210000D02*
G03*
X344000Y212000I0J2000D01*
G01*
Y208000D02*
G03*
X342000Y210000I-2000J0D01*
G01*
Y206000D02*
G03*
X344000Y208000I0J2000D01*
G01*
Y204000D02*
G03*
X342000Y206000I-2000J0D01*
G01*
Y202000D02*
G03*
X344000Y204000I0J2000D01*
G01*
Y200000D02*
G03*
X342000Y202000I-2000J0D01*
G01*
Y198000D02*
G03*
X344000Y200000I0J2000D01*
G01*
Y196000D02*
G03*
X342000Y198000I-2000J0D01*
G01*
Y194000D02*
G03*
X344000Y196000I0J2000D01*
G01*
Y192000D02*
G03*
X342000Y194000I-2000J0D01*
G01*
Y190000D02*
G03*
X344000Y192000I0J2000D01*
G01*
Y188000D02*
G03*
X342000Y190000I-2000J0D01*
G01*
Y186000D02*
G03*
X344000Y188000I0J2000D01*
G01*
X151590Y265500D02*
G03*
X151590Y265500I-5590J0D01*
G01*
X128831Y257500D02*
G03*
X128831Y257500I-5831J0D01*
G01*
X106701Y265500D02*
G03*
X106701Y265500I-5701J0D01*
G01*
X151831Y313500D02*
G03*
X151831Y313500I-5831J0D01*
G01*
X106657D02*
G03*
X106657Y313500I-5657J0D01*
G01*
X103000Y284500D02*
G03*
X101000Y282500I0J-2000D01*
G01*
X105000D02*
G03*
X103000Y284500I-2000J0D01*
G01*
X107000D02*
G03*
X105000Y282500I0J-2000D01*
G01*
X109000D02*
G03*
X107000Y284500I-2000J0D01*
G01*
X111000D02*
G03*
X109000Y282500I0J-2000D01*
G01*
X113000D02*
G03*
X111000Y284500I-2000J0D01*
G01*
X115000D02*
G03*
X113000Y282500I0J-2000D01*
G01*
X117000D02*
G03*
X115000Y284500I-2000J0D01*
G01*
X119000D02*
G03*
X117000Y282500I0J-2000D01*
G01*
X121000D02*
G03*
X119000Y284500I-2000J0D01*
G01*
X123000D02*
G03*
X121000Y282500I0J-2000D01*
G01*
X125000D02*
G03*
X123000Y284500I-2000J0D01*
G01*
X127000D02*
G03*
X125000Y282500I0J-2000D01*
G01*
X129000D02*
G03*
X127000Y284500I-2000J0D01*
G01*
X131000D02*
G03*
X129000Y282500I0J-2000D01*
G01*
X133000D02*
G03*
X131000Y284500I-2000J0D01*
G01*
X135000D02*
G03*
X133000Y282500I0J-2000D01*
G01*
X137000D02*
G03*
X135000Y284500I-2000J0D01*
G01*
X139000D02*
G03*
X137000Y282500I0J-2000D01*
G01*
X141000D02*
G03*
X139000Y284500I-2000J0D01*
G01*
X143000D02*
G03*
X141000Y282500I0J-2000D01*
G01*
X145000D02*
G03*
X143000Y284500I-2000J0D01*
G01*
X214590Y265500D02*
G03*
X214590Y265500I-5590J0D01*
G01*
X191831Y257500D02*
G03*
X191831Y257500I-5831J0D01*
G01*
X169701Y265500D02*
G03*
X169701Y265500I-5701J0D01*
G01*
X214831Y313500D02*
G03*
X214831Y313500I-5831J0D01*
G01*
X169657D02*
G03*
X169657Y313500I-5657J0D01*
G01*
X166000Y284500D02*
G03*
X164000Y282500I0J-2000D01*
G01*
X168000D02*
G03*
X166000Y284500I-2000J0D01*
G01*
X170000D02*
G03*
X168000Y282500I0J-2000D01*
G01*
X172000D02*
G03*
X170000Y284500I-2000J0D01*
G01*
X174000D02*
G03*
X172000Y282500I0J-2000D01*
G01*
X176000D02*
G03*
X174000Y284500I-2000J0D01*
G01*
X178000D02*
G03*
X176000Y282500I0J-2000D01*
G01*
X180000D02*
G03*
X178000Y284500I-2000J0D01*
G01*
X182000D02*
G03*
X180000Y282500I0J-2000D01*
G01*
X184000D02*
G03*
X182000Y284500I-2000J0D01*
G01*
X186000D02*
G03*
X184000Y282500I0J-2000D01*
G01*
X188000D02*
G03*
X186000Y284500I-2000J0D01*
G01*
X190000D02*
G03*
X188000Y282500I0J-2000D01*
G01*
X192000D02*
G03*
X190000Y284500I-2000J0D01*
G01*
X194000D02*
G03*
X192000Y282500I0J-2000D01*
G01*
X196000D02*
G03*
X194000Y284500I-2000J0D01*
G01*
X198000D02*
G03*
X196000Y282500I0J-2000D01*
G01*
X200000D02*
G03*
X198000Y284500I-2000J0D01*
G01*
X202000D02*
G03*
X200000Y282500I0J-2000D01*
G01*
X204000D02*
G03*
X202000Y284500I-2000J0D01*
G01*
X206000D02*
G03*
X204000Y282500I0J-2000D01*
G01*
X208000D02*
G03*
X206000Y284500I-2000J0D01*
G01*
X277590Y265500D02*
G03*
X277590Y265500I-5590J0D01*
G01*
X254831Y257500D02*
G03*
X254831Y257500I-5831J0D01*
G01*
X232701Y265500D02*
G03*
X232701Y265500I-5701J0D01*
G01*
X277831Y313500D02*
G03*
X277831Y313500I-5831J0D01*
G01*
X232657D02*
G03*
X232657Y313500I-5657J0D01*
G01*
X229000Y284500D02*
G03*
X227000Y282500I0J-2000D01*
G01*
X231000D02*
G03*
X229000Y284500I-2000J0D01*
G01*
X233000D02*
G03*
X231000Y282500I0J-2000D01*
G01*
X235000D02*
G03*
X233000Y284500I-2000J0D01*
G01*
X237000D02*
G03*
X235000Y282500I0J-2000D01*
G01*
X239000D02*
G03*
X237000Y284500I-2000J0D01*
G01*
X241000D02*
G03*
X239000Y282500I0J-2000D01*
G01*
X243000D02*
G03*
X241000Y284500I-2000J0D01*
G01*
X245000D02*
G03*
X243000Y282500I0J-2000D01*
G01*
X247000D02*
G03*
X245000Y284500I-2000J0D01*
G01*
X249000D02*
G03*
X247000Y282500I0J-2000D01*
G01*
X251000D02*
G03*
X249000Y284500I-2000J0D01*
G01*
X253000D02*
G03*
X251000Y282500I0J-2000D01*
G01*
X255000D02*
G03*
X253000Y284500I-2000J0D01*
G01*
X257000D02*
G03*
X255000Y282500I0J-2000D01*
G01*
X259000D02*
G03*
X257000Y284500I-2000J0D01*
G01*
X261000D02*
G03*
X259000Y282500I0J-2000D01*
G01*
X263000D02*
G03*
X261000Y284500I-2000J0D01*
G01*
X265000D02*
G03*
X263000Y282500I0J-2000D01*
G01*
X267000D02*
G03*
X265000Y284500I-2000J0D01*
G01*
X269000D02*
G03*
X267000Y282500I0J-2000D01*
G01*
X271000D02*
G03*
X269000Y284500I-2000J0D01*
G01*
X340590Y265500D02*
G03*
X340590Y265500I-5590J0D01*
G01*
X317831Y257500D02*
G03*
X317831Y257500I-5831J0D01*
G01*
X295701Y265500D02*
G03*
X295701Y265500I-5701J0D01*
G01*
X340831Y313500D02*
G03*
X340831Y313500I-5831J0D01*
G01*
X295657D02*
G03*
X295657Y313500I-5657J0D01*
G01*
X292000Y284500D02*
G03*
X290000Y282500I0J-2000D01*
G01*
X294000D02*
G03*
X292000Y284500I-2000J0D01*
G01*
X296000D02*
G03*
X294000Y282500I0J-2000D01*
G01*
X298000D02*
G03*
X296000Y284500I-2000J0D01*
G01*
X300000D02*
G03*
X298000Y282500I0J-2000D01*
G01*
X302000D02*
G03*
X300000Y284500I-2000J0D01*
G01*
X304000D02*
G03*
X302000Y282500I0J-2000D01*
G01*
X306000D02*
G03*
X304000Y284500I-2000J0D01*
G01*
X308000D02*
G03*
X306000Y282500I0J-2000D01*
G01*
X310000D02*
G03*
X308000Y284500I-2000J0D01*
G01*
X312000D02*
G03*
X310000Y282500I0J-2000D01*
G01*
X314000D02*
G03*
X312000Y284500I-2000J0D01*
G01*
X316000D02*
G03*
X314000Y282500I0J-2000D01*
G01*
X318000D02*
G03*
X316000Y284500I-2000J0D01*
G01*
X320000D02*
G03*
X318000Y282500I0J-2000D01*
G01*
X322000D02*
G03*
X320000Y284500I-2000J0D01*
G01*
X324000D02*
G03*
X322000Y282500I0J-2000D01*
G01*
X326000D02*
G03*
X324000Y284500I-2000J0D01*
G01*
X328000D02*
G03*
X326000Y282500I0J-2000D01*
G01*
X330000D02*
G03*
X328000Y284500I-2000J0D01*
G01*
X332000D02*
G03*
X330000Y282500I0J-2000D01*
G01*
X334000D02*
G03*
X332000Y284500I-2000J0D01*
G01*
X31496Y19685D02*
G03*
X31496Y19685I-11811J0D01*
G01*
Y374016D02*
G03*
X31496Y374016I-11811J0D01*
G01*
X385827D02*
G03*
X385827Y374016I-11811J0D01*
G01*
Y19685D02*
G03*
X385827Y19685I-11811J0D01*
G01*
X-500Y321500D02*
X90000D01*
X90061Y321439D01*
Y165256D02*
Y321439D01*
X-490Y165256D02*
X90061D01*
X-490D02*
Y321063D01*
X84500Y4500D02*
X210484D01*
X364500Y250000D02*
X371000D01*
X395000Y262779D02*
Y305000D01*
X355000Y262779D02*
X395000D01*
X355000D02*
Y305000D01*
X395000D01*
X375000Y262779D02*
Y305000D01*
X345000D02*
X355000D01*
X345000Y262779D02*
X355000D01*
X345000D02*
Y305000D01*
X364500Y252500D02*
X371000D01*
X355000Y250000D02*
Y262779D01*
Y250000D02*
X357500D01*
Y262500D01*
X373500Y250000D02*
Y255000D01*
X357500Y252500D02*
X373500D01*
X357500Y250000D02*
X373500D01*
X357500Y255000D02*
X373500D01*
X384500Y250000D02*
X391000D01*
X384500Y252500D02*
X391000D01*
X375000Y250000D02*
Y262779D01*
Y250000D02*
X377500D01*
Y262500D01*
X393500Y250000D02*
Y255000D01*
X377500Y252500D02*
X393500D01*
X377500Y250000D02*
X393500D01*
X377500Y255000D02*
X393500D01*
X332500Y122500D02*
X342000D01*
X332000Y166500D02*
X342000D01*
X365500Y154500D02*
Y155500D01*
X353000Y144500D02*
X366500Y158000D01*
X365500Y134500D02*
X372000D01*
Y127500D02*
Y134500D01*
X365500Y154500D02*
X372000D01*
Y160500D01*
X346000Y144500D02*
X355000D01*
X384937Y113500D02*
Y174500D01*
X309000D02*
X384937D01*
X309000Y113500D02*
Y174500D01*
Y113500D02*
X384937D01*
X107500Y173500D02*
X112500D01*
X110000Y171000D02*
Y176000D01*
X103750Y181000D02*
Y191000D01*
X101250Y183500D02*
X106250D01*
X103750Y188500D02*
X106250Y183500D01*
X101250D02*
X103750Y188500D01*
X101250D02*
X106250D01*
X101722Y184445D02*
X105856Y184288D01*
X104550Y184338D02*
X104696Y186608D01*
X102882Y186764D02*
X102937Y184399D01*
X309000Y177000D02*
X384937D01*
X309000D02*
Y238000D01*
X384937D01*
Y177000D02*
Y238000D01*
X346000Y208000D02*
X355000D01*
X372000Y218000D02*
Y224000D01*
X365500Y218000D02*
X372000D01*
Y191000D02*
Y198000D01*
X365500D02*
X372000D01*
X353000Y208000D02*
X366500Y221500D01*
X365500Y218000D02*
Y219000D01*
X332000Y230000D02*
X342000D01*
X332500Y186000D02*
X342000D01*
X324736Y83500D02*
X347374D01*
X349343Y68657D02*
Y108028D01*
X324539Y68657D02*
Y108028D01*
Y68657D02*
X349343D01*
X324539Y108028D02*
X349343D01*
X347374Y68657D02*
Y108028D01*
X287736Y83500D02*
X310374D01*
X312343Y68657D02*
Y108028D01*
X287539Y68657D02*
Y108028D01*
Y68657D02*
X312343D01*
X287539Y108028D02*
X312343D01*
X310374Y68657D02*
Y108028D01*
X299500Y14500D02*
Y18437D01*
Y10563D02*
Y14500D01*
X294500Y19500D02*
X298437D01*
X294500Y9500D02*
X298437D01*
X290563Y19500D02*
X294500D01*
X290563Y9500D02*
X294500D01*
X289500Y18437D02*
X290563Y19500D01*
X298437D02*
X299500Y18437D01*
X298437Y9500D02*
X299500Y10563D01*
X289500D02*
X290563Y9500D01*
X284500Y19500D02*
X288437D01*
X284500Y9500D02*
X288437D01*
X280563Y19500D02*
X284500D01*
X280563Y9500D02*
X284500D01*
X279500Y18437D02*
X280563Y19500D01*
X288437D02*
X289500Y18437D01*
X288437Y9500D02*
X289500Y10563D01*
X279500D02*
X280563Y9500D01*
X274500Y19500D02*
X278437D01*
X274500Y9500D02*
X278437D01*
X270563Y19500D02*
X274500D01*
X270563Y9500D02*
X274500D01*
X269500Y18437D02*
X270563Y19500D01*
X278437D02*
X279500Y18437D01*
X278437Y9500D02*
X279500Y10563D01*
X269500D02*
X270563Y9500D01*
X264500Y19500D02*
X268437D01*
X264500Y9500D02*
X268437D01*
X260563Y19500D02*
X264500D01*
X260563Y9500D02*
X264500D01*
X259500Y18437D02*
X260563Y19500D01*
X268437D02*
X269500Y18437D01*
X268437Y9500D02*
X269500Y10563D01*
X259500D02*
X260563Y9500D01*
X254500Y19500D02*
X258437D01*
X254500Y9500D02*
X258437D01*
X250563Y19500D02*
X254500D01*
X250563Y9500D02*
X254500D01*
X249500Y18437D02*
X250563Y19500D01*
X258437D02*
X259500Y18437D01*
X258437Y9500D02*
X259500Y10563D01*
X249500D02*
X250563Y9500D01*
X244500Y19500D02*
X248437D01*
X244500Y9500D02*
X248437D01*
X240563Y19500D02*
X244500D01*
X240563Y9500D02*
X244500D01*
X239500Y18437D02*
X240563Y19500D01*
X248437D02*
X249500Y18437D01*
X248437Y9500D02*
X249500Y10563D01*
X239500D02*
X240563Y9500D01*
X234500Y19500D02*
X238437D01*
X234500Y9500D02*
X238437D01*
X230563Y19500D02*
X234500D01*
X230563Y9500D02*
X234500D01*
X229500Y18437D02*
X230563Y19500D01*
X238437D02*
X239500Y18437D01*
X238437Y9500D02*
X239500Y10563D01*
X229500D02*
X230563Y9500D01*
X219500Y10563D02*
Y14500D01*
Y18437D01*
X224500Y19500D02*
X228437D01*
X224500Y9500D02*
X228437D01*
X220563Y19500D02*
X224500D01*
X220563Y9500D02*
X224500D01*
X219500Y18437D02*
X220563Y19500D01*
X228437D02*
X229500Y18437D01*
X228437Y9500D02*
X229500Y10563D01*
X219500D02*
X220563Y9500D01*
X154000Y249500D02*
Y325437D01*
X93000Y249500D02*
X154000D01*
X93000D02*
Y325437D01*
X154000D01*
X123000Y286500D02*
Y295500D01*
X107000Y312500D02*
X113000D01*
Y306000D02*
Y312500D01*
X133000D02*
X140000D01*
X133000Y306000D02*
Y312500D01*
X109500Y307000D02*
X123000Y293500D01*
X112000Y306000D02*
X113000D01*
X101000Y272500D02*
Y282500D01*
X145000Y273000D02*
Y282500D01*
X217000Y249500D02*
Y325437D01*
X156000Y249500D02*
X217000D01*
X156000D02*
Y325437D01*
X217000D01*
X186000Y286500D02*
Y295500D01*
X170000Y312500D02*
X176000D01*
Y306000D02*
Y312500D01*
X196000D02*
X203000D01*
X196000Y306000D02*
Y312500D01*
X172500Y307000D02*
X186000Y293500D01*
X175000Y306000D02*
X176000D01*
X164000Y272500D02*
Y282500D01*
X208000Y273000D02*
Y282500D01*
X280000Y249500D02*
Y325437D01*
X219000Y249500D02*
X280000D01*
X219000D02*
Y325437D01*
X280000D01*
X249000Y286500D02*
Y295500D01*
X233000Y312500D02*
X239000D01*
Y306000D02*
Y312500D01*
X259000D02*
X266000D01*
X259000Y306000D02*
Y312500D01*
X235500Y307000D02*
X249000Y293500D01*
X238000Y306000D02*
X239000D01*
X227000Y272500D02*
Y282500D01*
X271000Y273000D02*
Y282500D01*
X343000Y249500D02*
Y325437D01*
X282000Y249500D02*
X343000D01*
X282000D02*
Y325437D01*
X343000D01*
X312000Y286500D02*
Y295500D01*
X296000Y312500D02*
X302000D01*
Y306000D02*
Y312500D01*
X322000D02*
X329000D01*
X322000Y306000D02*
Y312500D01*
X298500Y307000D02*
X312000Y293500D01*
X301000Y306000D02*
X302000D01*
X290000Y272500D02*
Y282500D01*
X334000Y273000D02*
Y282500D01*
X42685Y207500D02*
Y286240D01*
X56500Y335000D02*
X63000D01*
X87000Y347780D02*
Y390000D01*
X47000Y347780D02*
X87000D01*
X47000D02*
Y390000D01*
X87000D01*
X67000Y347780D02*
Y390000D01*
X37000D02*
X47000D01*
X37000Y347780D02*
X47000D01*
X37000D02*
Y390000D01*
X56500Y337500D02*
X63000D01*
X47000Y335000D02*
Y347780D01*
Y335000D02*
X49500D01*
Y347500D01*
X65500Y335000D02*
Y340000D01*
X49500Y337500D02*
X65500D01*
X49500Y335000D02*
X65500D01*
X49500Y340000D02*
X65500D01*
X76500Y335000D02*
X83000D01*
X76500Y337500D02*
X83000D01*
X67000Y335000D02*
Y347780D01*
Y335000D02*
X69500D01*
Y347500D01*
X85500Y335000D02*
Y340000D01*
X69500Y337500D02*
X85500D01*
X69500Y335000D02*
X85500D01*
X69500Y340000D02*
X85500D01*
X110500Y335000D02*
X117000D01*
X141000Y347780D02*
Y390000D01*
X101000Y347780D02*
X141000D01*
X101000D02*
Y390000D01*
X141000D01*
X121000Y347780D02*
Y390000D01*
X91000D02*
X101000D01*
X91000Y347780D02*
X101000D01*
X91000D02*
Y390000D01*
X110500Y337500D02*
X117000D01*
X101000Y335000D02*
Y347780D01*
Y335000D02*
X103500D01*
Y347500D01*
X119500Y335000D02*
Y340000D01*
X103500Y337500D02*
X119500D01*
X103500Y335000D02*
X119500D01*
X103500Y340000D02*
X119500D01*
X130500Y335000D02*
X137000D01*
X130500Y337500D02*
X137000D01*
X121000Y335000D02*
Y347780D01*
Y335000D02*
X123500D01*
Y347500D01*
X139500Y335000D02*
Y340000D01*
X123500Y337500D02*
X139500D01*
X123500Y335000D02*
X139500D01*
X123500Y340000D02*
X139500D01*
X164000Y335000D02*
X170500D01*
X194500Y347780D02*
Y390000D01*
X154500Y347780D02*
X194500D01*
X154500D02*
Y390000D01*
X194500D01*
X174500Y347780D02*
Y390000D01*
X144500D02*
X154500D01*
X144500Y347780D02*
X154500D01*
X144500D02*
Y390000D01*
X164000Y337500D02*
X170500D01*
X154500Y335000D02*
Y347780D01*
Y335000D02*
X157000D01*
Y347500D01*
X173000Y335000D02*
Y340000D01*
X157000Y337500D02*
X173000D01*
X157000Y335000D02*
X173000D01*
X157000Y340000D02*
X173000D01*
X184000Y335000D02*
X190500D01*
X184000Y337500D02*
X190500D01*
X174500Y335000D02*
Y347780D01*
Y335000D02*
X177000D01*
Y347500D01*
X193000Y335000D02*
Y340000D01*
X177000Y337500D02*
X193000D01*
X177000Y335000D02*
X193000D01*
X177000Y340000D02*
X193000D01*
X217500Y335000D02*
X224000D01*
X248000Y347780D02*
Y390000D01*
X208000Y347780D02*
X248000D01*
X208000D02*
Y390000D01*
X248000D01*
X228000Y347780D02*
Y390000D01*
X198000D02*
X208000D01*
X198000Y347780D02*
X208000D01*
X198000D02*
Y390000D01*
X217500Y337500D02*
X224000D01*
X208000Y335000D02*
Y347780D01*
Y335000D02*
X210500D01*
Y347500D01*
X226500Y335000D02*
Y340000D01*
X210500Y337500D02*
X226500D01*
X210500Y335000D02*
X226500D01*
X210500Y340000D02*
X226500D01*
X237500Y335000D02*
X244000D01*
X237500Y337500D02*
X244000D01*
X228000Y335000D02*
Y347780D01*
Y335000D02*
X230500D01*
Y347500D01*
X246500Y335000D02*
Y340000D01*
X230500Y337500D02*
X246500D01*
X230500Y335000D02*
X246500D01*
X230500Y340000D02*
X246500D01*
X271000Y335000D02*
X277500D01*
X301500Y347780D02*
Y390000D01*
X261500Y347780D02*
X301500D01*
X261500D02*
Y390000D01*
X301500D01*
X281500Y347780D02*
Y390000D01*
X251500D02*
X261500D01*
X251500Y347780D02*
X261500D01*
X251500D02*
Y390000D01*
X271000Y337500D02*
X277500D01*
X261500Y335000D02*
Y347780D01*
Y335000D02*
X264000D01*
Y347500D01*
X280000Y335000D02*
Y340000D01*
X264000Y337500D02*
X280000D01*
X264000Y335000D02*
X280000D01*
X264000Y340000D02*
X280000D01*
X291000Y335000D02*
X297500D01*
X291000Y337500D02*
X297500D01*
X281500Y335000D02*
Y347780D01*
Y335000D02*
X284000D01*
Y347500D01*
X300000Y335000D02*
Y340000D01*
X284000Y337500D02*
X300000D01*
X284000Y335000D02*
X300000D01*
X284000Y340000D02*
X300000D01*
X324500Y335000D02*
X331000D01*
X355000Y347780D02*
Y390000D01*
X315000Y347780D02*
X355000D01*
X315000D02*
Y390000D01*
X355000D01*
X335000Y347780D02*
Y390000D01*
X305000D02*
X315000D01*
X305000Y347780D02*
X315000D01*
X305000D02*
Y390000D01*
X324500Y337500D02*
X331000D01*
X315000Y335000D02*
Y347780D01*
Y335000D02*
X317500D01*
Y347500D01*
X333500Y335000D02*
Y340000D01*
X317500Y337500D02*
X333500D01*
X317500Y335000D02*
X333500D01*
X317500Y340000D02*
X333500D01*
X344500Y335000D02*
X351000D01*
X344500Y337500D02*
X351000D01*
X335000Y335000D02*
Y347780D01*
Y335000D02*
X337500D01*
Y347500D01*
X353500Y335000D02*
Y340000D01*
X337500Y337500D02*
X353500D01*
X337500Y335000D02*
X353500D01*
X337500Y340000D02*
X353500D01*
X335167Y142715D02*
X334929Y143429D01*
Y142001D01*
X335167Y142715D01*
X335644Y142239D01*
X336358Y142001D01*
X336834D01*
X337548Y142239D01*
X338024Y142715D01*
X338262Y143191D01*
X338500Y143905D01*
Y145096D01*
X338262Y145810D01*
X338024Y146286D01*
X337548Y146762D01*
X336834Y147000D01*
X336358D01*
X335644Y146762D01*
X335167Y146286D01*
X334929Y145810D01*
X336834Y142001D02*
X337310Y142239D01*
X337786Y142715D01*
X338024Y143191D01*
X338262Y143905D01*
Y145096D01*
X338024Y145810D01*
X337786Y146286D01*
X337310Y146762D01*
X336834Y147000D01*
X332549Y142001D02*
X333263Y142239D01*
X333739Y142715D01*
X333977Y143191D01*
X334215Y144143D01*
Y144858D01*
X333977Y145810D01*
X333739Y146286D01*
X333263Y146762D01*
X332549Y147000D01*
X332073D01*
X331359Y146762D01*
X330883Y146286D01*
X330644Y145810D01*
X330406Y144858D01*
Y144143D01*
X330644Y143191D01*
X330883Y142715D01*
X331359Y142239D01*
X332073Y142001D01*
X332549D01*
X333025Y142239D01*
X333501Y142715D01*
X333739Y143191D01*
X333977Y144143D01*
Y144858D01*
X333739Y145810D01*
X333501Y146286D01*
X333025Y146762D01*
X332549Y147000D01*
X332073D02*
X331597Y146762D01*
X331121Y146286D01*
X330883Y145810D01*
X330644Y144858D01*
Y144143D01*
X330883Y143191D01*
X331121Y142715D01*
X331597Y142239D01*
X332073Y142001D01*
X329002D02*
Y147000D01*
X328764Y142001D02*
X327336Y146286D01*
X329002Y142001D02*
X327336Y147000D01*
X325669Y142001D02*
X327336Y147000D01*
X325669Y142001D02*
Y147000D01*
X325431Y142001D02*
Y147000D01*
X329716Y142001D02*
X328764D01*
X325669D02*
X324717D01*
X329716Y147000D02*
X328288D01*
X326383D02*
X324717D01*
X362786Y164001D02*
Y169000D01*
X362548Y164001D02*
X359691Y168524D01*
X362548Y164477D02*
X359691Y169000D01*
Y164001D02*
Y169000D01*
X363500Y164001D02*
X362548D01*
X360405D02*
X358977D01*
X363500Y169000D02*
X362072D01*
X355026Y164715D02*
X354788Y165429D01*
Y164001D01*
X355026Y164715D01*
X355502Y164239D01*
X356216Y164001D01*
X356692D01*
X357406Y164239D01*
X357882Y164715D01*
X358120Y165191D01*
X358358Y165905D01*
Y167096D01*
X358120Y167810D01*
X357882Y168286D01*
X357406Y168762D01*
X356692Y169000D01*
X356216D01*
X355502Y168762D01*
X355026Y168286D01*
X354788Y167810D01*
X356692Y164001D02*
X357168Y164239D01*
X357644Y164715D01*
X357882Y165191D01*
X358120Y165905D01*
Y167096D01*
X357882Y167810D01*
X357644Y168286D01*
X357168Y168762D01*
X356692Y169000D01*
X362786Y118501D02*
Y123500D01*
X362548Y118501D02*
X359691Y123024D01*
X362548Y118977D02*
X359691Y123500D01*
Y118501D02*
Y123500D01*
X363500Y118501D02*
X362548D01*
X360405D02*
X358977D01*
X363500Y123500D02*
X362072D01*
X356692Y118501D02*
X357406Y118739D01*
X357882Y119215D01*
X358120Y119691D01*
X358358Y120643D01*
Y121358D01*
X358120Y122310D01*
X357882Y122786D01*
X357406Y123262D01*
X356692Y123500D01*
X356216D01*
X355502Y123262D01*
X355026Y122786D01*
X354788Y122310D01*
X354550Y121358D01*
Y120643D01*
X354788Y119691D01*
X355026Y119215D01*
X355502Y118739D01*
X356216Y118501D01*
X356692D01*
X357168Y118739D01*
X357644Y119215D01*
X357882Y119691D01*
X358120Y120643D01*
Y121358D01*
X357882Y122310D01*
X357644Y122786D01*
X357168Y123262D01*
X356692Y123500D01*
X356216D02*
X355740Y123262D01*
X355264Y122786D01*
X355026Y122310D01*
X354788Y121358D01*
Y120643D01*
X355026Y119691D01*
X355264Y119215D01*
X355740Y118739D01*
X356216Y118501D01*
X362786Y182001D02*
Y187000D01*
X362548Y182001D02*
X359691Y186524D01*
X362548Y182477D02*
X359691Y187000D01*
Y182001D02*
Y187000D01*
X363500Y182001D02*
X362548D01*
X360405D02*
X358977D01*
X363500Y187000D02*
X362072D01*
X356692Y182001D02*
X357406Y182239D01*
X357882Y182715D01*
X358120Y183191D01*
X358358Y184143D01*
Y184858D01*
X358120Y185810D01*
X357882Y186286D01*
X357406Y186762D01*
X356692Y187000D01*
X356216D01*
X355502Y186762D01*
X355026Y186286D01*
X354788Y185810D01*
X354550Y184858D01*
Y184143D01*
X354788Y183191D01*
X355026Y182715D01*
X355502Y182239D01*
X356216Y182001D01*
X356692D01*
X357168Y182239D01*
X357644Y182715D01*
X357882Y183191D01*
X358120Y184143D01*
Y184858D01*
X357882Y185810D01*
X357644Y186286D01*
X357168Y186762D01*
X356692Y187000D01*
X356216D02*
X355740Y186762D01*
X355264Y186286D01*
X355026Y185810D01*
X354788Y184858D01*
Y184143D01*
X355026Y183191D01*
X355264Y182715D01*
X355740Y182239D01*
X356216Y182001D01*
X362786Y227501D02*
Y232500D01*
X362548Y227501D02*
X359691Y232024D01*
X362548Y227977D02*
X359691Y232500D01*
Y227501D02*
Y232500D01*
X363500Y227501D02*
X362548D01*
X360405D02*
X358977D01*
X363500Y232500D02*
X362072D01*
X355026Y228215D02*
X354788Y228929D01*
Y227501D01*
X355026Y228215D01*
X355502Y227739D01*
X356216Y227501D01*
X356692D01*
X357406Y227739D01*
X357882Y228215D01*
X358120Y228691D01*
X358358Y229405D01*
Y230596D01*
X358120Y231310D01*
X357882Y231786D01*
X357406Y232262D01*
X356692Y232500D01*
X356216D01*
X355502Y232262D01*
X355026Y231786D01*
X354788Y231310D01*
X356692Y227501D02*
X357168Y227739D01*
X357644Y228215D01*
X357882Y228691D01*
X358120Y229405D01*
Y230596D01*
X357882Y231310D01*
X357644Y231786D01*
X357168Y232262D01*
X356692Y232500D01*
X335167Y206215D02*
X334929Y206929D01*
Y205501D01*
X335167Y206215D01*
X335644Y205739D01*
X336358Y205501D01*
X336834D01*
X337548Y205739D01*
X338024Y206215D01*
X338262Y206691D01*
X338500Y207405D01*
Y208596D01*
X338262Y209310D01*
X338024Y209786D01*
X337548Y210262D01*
X336834Y210500D01*
X336358D01*
X335644Y210262D01*
X335167Y209786D01*
X334929Y209310D01*
X336834Y205501D02*
X337310Y205739D01*
X337786Y206215D01*
X338024Y206691D01*
X338262Y207405D01*
Y208596D01*
X338024Y209310D01*
X337786Y209786D01*
X337310Y210262D01*
X336834Y210500D01*
X332549Y205501D02*
X333263Y205739D01*
X333739Y206215D01*
X333977Y206691D01*
X334215Y207644D01*
Y208358D01*
X333977Y209310D01*
X333739Y209786D01*
X333263Y210262D01*
X332549Y210500D01*
X332073D01*
X331359Y210262D01*
X330883Y209786D01*
X330644Y209310D01*
X330406Y208358D01*
Y207644D01*
X330644Y206691D01*
X330883Y206215D01*
X331359Y205739D01*
X332073Y205501D01*
X332549D01*
X333025Y205739D01*
X333501Y206215D01*
X333739Y206691D01*
X333977Y207644D01*
Y208358D01*
X333739Y209310D01*
X333501Y209786D01*
X333025Y210262D01*
X332549Y210500D01*
X332073D02*
X331597Y210262D01*
X331121Y209786D01*
X330883Y209310D01*
X330644Y208358D01*
Y207644D01*
X330883Y206691D01*
X331121Y206215D01*
X331597Y205739D01*
X332073Y205501D01*
X329002D02*
Y210500D01*
X328764Y205501D02*
X327336Y209786D01*
X329002Y205501D02*
X327336Y210500D01*
X325669Y205501D02*
X327336Y210500D01*
X325669Y205501D02*
Y210500D01*
X325431Y205501D02*
Y210500D01*
X329716Y205501D02*
X328764D01*
X325669D02*
X324717D01*
X329716Y210500D02*
X328288D01*
X326383D02*
X324717D01*
X148999Y303286D02*
X144000D01*
X148999Y303048D02*
X144476Y300191D01*
X148523Y303048D02*
X144000Y300191D01*
X148999D02*
X144000D01*
X148999Y304000D02*
Y303048D01*
Y300905D02*
Y299477D01*
X144000Y304000D02*
Y302572D01*
X148999Y297192D02*
X148761Y297906D01*
X148285Y298382D01*
X147809Y298620D01*
X146856Y298858D01*
X146142D01*
X145190Y298620D01*
X144714Y298382D01*
X144238Y297906D01*
X144000Y297192D01*
Y296716D01*
X144238Y296002D01*
X144714Y295526D01*
X145190Y295288D01*
X146142Y295050D01*
X146856D01*
X147809Y295288D01*
X148285Y295526D01*
X148761Y296002D01*
X148999Y296716D01*
Y297192D01*
X148761Y297668D01*
X148285Y298144D01*
X147809Y298382D01*
X146856Y298620D01*
X146142D01*
X145190Y298382D01*
X144714Y298144D01*
X144238Y297668D01*
X144000Y297192D01*
Y296716D02*
X144238Y296240D01*
X144714Y295764D01*
X145190Y295526D01*
X146142Y295288D01*
X146856D01*
X147809Y295526D01*
X148285Y295764D01*
X148761Y296240D01*
X148999Y296716D01*
X103499Y303286D02*
X98500D01*
X103499Y303048D02*
X98976Y300191D01*
X103023Y303048D02*
X98500Y300191D01*
X103499D02*
X98500D01*
X103499Y304000D02*
Y303048D01*
Y300905D02*
Y299477D01*
X98500Y304000D02*
Y302572D01*
X102785Y295526D02*
X102071Y295288D01*
X103499D01*
X102785Y295526D01*
X103261Y296002D01*
X103499Y296716D01*
Y297192D01*
X103261Y297906D01*
X102785Y298382D01*
X102309Y298620D01*
X101595Y298858D01*
X100404D01*
X99690Y298620D01*
X99214Y298382D01*
X98738Y297906D01*
X98500Y297192D01*
Y296716D01*
X98738Y296002D01*
X99214Y295526D01*
X99690Y295288D01*
X103499Y297192D02*
X103261Y297668D01*
X102785Y298144D01*
X102309Y298382D01*
X101595Y298620D01*
X100404D01*
X99690Y298382D01*
X99214Y298144D01*
X98738Y297668D01*
X98500Y297192D01*
X124785Y275667D02*
X124071Y275429D01*
X125499D01*
X124785Y275667D01*
X125261Y276144D01*
X125499Y276858D01*
Y277334D01*
X125261Y278048D01*
X124785Y278524D01*
X124309Y278762D01*
X123595Y279000D01*
X122404D01*
X121690Y278762D01*
X121214Y278524D01*
X120738Y278048D01*
X120500Y277334D01*
Y276858D01*
X120738Y276144D01*
X121214Y275667D01*
X121690Y275429D01*
X125499Y277334D02*
X125261Y277810D01*
X124785Y278286D01*
X124309Y278524D01*
X123595Y278762D01*
X122404D01*
X121690Y278524D01*
X121214Y278286D01*
X120738Y277810D01*
X120500Y277334D01*
X125499Y273049D02*
X125261Y273763D01*
X124785Y274239D01*
X124309Y274477D01*
X123356Y274715D01*
X122642D01*
X121690Y274477D01*
X121214Y274239D01*
X120738Y273763D01*
X120500Y273049D01*
Y272573D01*
X120738Y271859D01*
X121214Y271383D01*
X121690Y271145D01*
X122642Y270906D01*
X123356D01*
X124309Y271145D01*
X124785Y271383D01*
X125261Y271859D01*
X125499Y272573D01*
Y273049D01*
X125261Y273525D01*
X124785Y274001D01*
X124309Y274239D01*
X123356Y274477D01*
X122642D01*
X121690Y274239D01*
X121214Y274001D01*
X120738Y273525D01*
X120500Y273049D01*
Y272573D02*
X120738Y272097D01*
X121214Y271621D01*
X121690Y271383D01*
X122642Y271145D01*
X123356D01*
X124309Y271383D01*
X124785Y271621D01*
X125261Y272097D01*
X125499Y272573D01*
Y269502D02*
X120500D01*
X125499Y269264D02*
X121214Y267836D01*
X125499Y269502D02*
X120500Y267836D01*
X125499Y266169D02*
X120500Y267836D01*
X125499Y266169D02*
X120500D01*
X125499Y265931D02*
X120500D01*
X125499Y270216D02*
Y269264D01*
Y266169D02*
Y265217D01*
X120500Y270216D02*
Y268788D01*
Y266883D02*
Y265217D01*
X211999Y303286D02*
X207000D01*
X211999Y303048D02*
X207476Y300191D01*
X211523Y303048D02*
X207000Y300191D01*
X211999D02*
X207000D01*
X211999Y304000D02*
Y303048D01*
Y300905D02*
Y299477D01*
X207000Y304000D02*
Y302572D01*
X211999Y297192D02*
X211761Y297906D01*
X211285Y298382D01*
X210809Y298620D01*
X209857Y298858D01*
X209142D01*
X208190Y298620D01*
X207714Y298382D01*
X207238Y297906D01*
X207000Y297192D01*
Y296716D01*
X207238Y296002D01*
X207714Y295526D01*
X208190Y295288D01*
X209142Y295050D01*
X209857D01*
X210809Y295288D01*
X211285Y295526D01*
X211761Y296002D01*
X211999Y296716D01*
Y297192D01*
X211761Y297668D01*
X211285Y298144D01*
X210809Y298382D01*
X209857Y298620D01*
X209142D01*
X208190Y298382D01*
X207714Y298144D01*
X207238Y297668D01*
X207000Y297192D01*
Y296716D02*
X207238Y296240D01*
X207714Y295764D01*
X208190Y295526D01*
X209142Y295288D01*
X209857D01*
X210809Y295526D01*
X211285Y295764D01*
X211761Y296240D01*
X211999Y296716D01*
X166499Y303286D02*
X161500D01*
X166499Y303048D02*
X161976Y300191D01*
X166023Y303048D02*
X161500Y300191D01*
X166499D02*
X161500D01*
X166499Y304000D02*
Y303048D01*
Y300905D02*
Y299477D01*
X161500Y304000D02*
Y302572D01*
X165785Y295526D02*
X165071Y295288D01*
X166499D01*
X165785Y295526D01*
X166261Y296002D01*
X166499Y296716D01*
Y297192D01*
X166261Y297906D01*
X165785Y298382D01*
X165309Y298620D01*
X164595Y298858D01*
X163404D01*
X162690Y298620D01*
X162214Y298382D01*
X161738Y297906D01*
X161500Y297192D01*
Y296716D01*
X161738Y296002D01*
X162214Y295526D01*
X162690Y295288D01*
X166499Y297192D02*
X166261Y297668D01*
X165785Y298144D01*
X165309Y298382D01*
X164595Y298620D01*
X163404D01*
X162690Y298382D01*
X162214Y298144D01*
X161738Y297668D01*
X161500Y297192D01*
X187785Y275667D02*
X187071Y275429D01*
X188499D01*
X187785Y275667D01*
X188261Y276144D01*
X188499Y276858D01*
Y277334D01*
X188261Y278048D01*
X187785Y278524D01*
X187309Y278762D01*
X186595Y279000D01*
X185404D01*
X184690Y278762D01*
X184214Y278524D01*
X183738Y278048D01*
X183500Y277334D01*
Y276858D01*
X183738Y276144D01*
X184214Y275667D01*
X184690Y275429D01*
X188499Y277334D02*
X188261Y277810D01*
X187785Y278286D01*
X187309Y278524D01*
X186595Y278762D01*
X185404D01*
X184690Y278524D01*
X184214Y278286D01*
X183738Y277810D01*
X183500Y277334D01*
X188499Y273049D02*
X188261Y273763D01*
X187785Y274239D01*
X187309Y274477D01*
X186356Y274715D01*
X185642D01*
X184690Y274477D01*
X184214Y274239D01*
X183738Y273763D01*
X183500Y273049D01*
Y272573D01*
X183738Y271859D01*
X184214Y271383D01*
X184690Y271145D01*
X185642Y270906D01*
X186356D01*
X187309Y271145D01*
X187785Y271383D01*
X188261Y271859D01*
X188499Y272573D01*
Y273049D01*
X188261Y273525D01*
X187785Y274001D01*
X187309Y274239D01*
X186356Y274477D01*
X185642D01*
X184690Y274239D01*
X184214Y274001D01*
X183738Y273525D01*
X183500Y273049D01*
Y272573D02*
X183738Y272097D01*
X184214Y271621D01*
X184690Y271383D01*
X185642Y271145D01*
X186356D01*
X187309Y271383D01*
X187785Y271621D01*
X188261Y272097D01*
X188499Y272573D01*
Y269502D02*
X183500D01*
X188499Y269264D02*
X184214Y267836D01*
X188499Y269502D02*
X183500Y267836D01*
X188499Y266169D02*
X183500Y267836D01*
X188499Y266169D02*
X183500D01*
X188499Y265931D02*
X183500D01*
X188499Y270216D02*
Y269264D01*
Y266169D02*
Y265217D01*
X183500Y270216D02*
Y268788D01*
Y266883D02*
Y265217D01*
X274999Y303286D02*
X270000D01*
X274999Y303048D02*
X270476Y300191D01*
X274523Y303048D02*
X270000Y300191D01*
X274999D02*
X270000D01*
X274999Y304000D02*
Y303048D01*
Y300905D02*
Y299477D01*
X270000Y304000D02*
Y302572D01*
X274999Y297192D02*
X274761Y297906D01*
X274285Y298382D01*
X273809Y298620D01*
X272856Y298858D01*
X272142D01*
X271190Y298620D01*
X270714Y298382D01*
X270238Y297906D01*
X270000Y297192D01*
Y296716D01*
X270238Y296002D01*
X270714Y295526D01*
X271190Y295288D01*
X272142Y295050D01*
X272856D01*
X273809Y295288D01*
X274285Y295526D01*
X274761Y296002D01*
X274999Y296716D01*
Y297192D01*
X274761Y297668D01*
X274285Y298144D01*
X273809Y298382D01*
X272856Y298620D01*
X272142D01*
X271190Y298382D01*
X270714Y298144D01*
X270238Y297668D01*
X270000Y297192D01*
Y296716D02*
X270238Y296240D01*
X270714Y295764D01*
X271190Y295526D01*
X272142Y295288D01*
X272856D01*
X273809Y295526D01*
X274285Y295764D01*
X274761Y296240D01*
X274999Y296716D01*
X229499Y303286D02*
X224500D01*
X229499Y303048D02*
X224976Y300191D01*
X229023Y303048D02*
X224500Y300191D01*
X229499D02*
X224500D01*
X229499Y304000D02*
Y303048D01*
Y300905D02*
Y299477D01*
X224500Y304000D02*
Y302572D01*
X228785Y295526D02*
X228071Y295288D01*
X229499D01*
X228785Y295526D01*
X229261Y296002D01*
X229499Y296716D01*
Y297192D01*
X229261Y297906D01*
X228785Y298382D01*
X228309Y298620D01*
X227595Y298858D01*
X226404D01*
X225690Y298620D01*
X225214Y298382D01*
X224738Y297906D01*
X224500Y297192D01*
Y296716D01*
X224738Y296002D01*
X225214Y295526D01*
X225690Y295288D01*
X229499Y297192D02*
X229261Y297668D01*
X228785Y298144D01*
X228309Y298382D01*
X227595Y298620D01*
X226404D01*
X225690Y298382D01*
X225214Y298144D01*
X224738Y297668D01*
X224500Y297192D01*
X250785Y275667D02*
X250071Y275429D01*
X251499D01*
X250785Y275667D01*
X251261Y276144D01*
X251499Y276858D01*
Y277334D01*
X251261Y278048D01*
X250785Y278524D01*
X250309Y278762D01*
X249595Y279000D01*
X248404D01*
X247690Y278762D01*
X247214Y278524D01*
X246738Y278048D01*
X246500Y277334D01*
Y276858D01*
X246738Y276144D01*
X247214Y275667D01*
X247690Y275429D01*
X251499Y277334D02*
X251261Y277810D01*
X250785Y278286D01*
X250309Y278524D01*
X249595Y278762D01*
X248404D01*
X247690Y278524D01*
X247214Y278286D01*
X246738Y277810D01*
X246500Y277334D01*
X251499Y273049D02*
X251261Y273763D01*
X250785Y274239D01*
X250309Y274477D01*
X249357Y274715D01*
X248642D01*
X247690Y274477D01*
X247214Y274239D01*
X246738Y273763D01*
X246500Y273049D01*
Y272573D01*
X246738Y271859D01*
X247214Y271383D01*
X247690Y271145D01*
X248642Y270906D01*
X249357D01*
X250309Y271145D01*
X250785Y271383D01*
X251261Y271859D01*
X251499Y272573D01*
Y273049D01*
X251261Y273525D01*
X250785Y274001D01*
X250309Y274239D01*
X249357Y274477D01*
X248642D01*
X247690Y274239D01*
X247214Y274001D01*
X246738Y273525D01*
X246500Y273049D01*
Y272573D02*
X246738Y272097D01*
X247214Y271621D01*
X247690Y271383D01*
X248642Y271145D01*
X249357D01*
X250309Y271383D01*
X250785Y271621D01*
X251261Y272097D01*
X251499Y272573D01*
Y269502D02*
X246500D01*
X251499Y269264D02*
X247214Y267836D01*
X251499Y269502D02*
X246500Y267836D01*
X251499Y266169D02*
X246500Y267836D01*
X251499Y266169D02*
X246500D01*
X251499Y265931D02*
X246500D01*
X251499Y270216D02*
Y269264D01*
Y266169D02*
Y265217D01*
X246500Y270216D02*
Y268788D01*
Y266883D02*
Y265217D01*
X337999Y303286D02*
X333000D01*
X337999Y303048D02*
X333476Y300191D01*
X337523Y303048D02*
X333000Y300191D01*
X337999D02*
X333000D01*
X337999Y304000D02*
Y303048D01*
Y300905D02*
Y299477D01*
X333000Y304000D02*
Y302572D01*
X337999Y297192D02*
X337761Y297906D01*
X337285Y298382D01*
X336809Y298620D01*
X335857Y298858D01*
X335142D01*
X334190Y298620D01*
X333714Y298382D01*
X333238Y297906D01*
X333000Y297192D01*
Y296716D01*
X333238Y296002D01*
X333714Y295526D01*
X334190Y295288D01*
X335142Y295050D01*
X335857D01*
X336809Y295288D01*
X337285Y295526D01*
X337761Y296002D01*
X337999Y296716D01*
Y297192D01*
X337761Y297668D01*
X337285Y298144D01*
X336809Y298382D01*
X335857Y298620D01*
X335142D01*
X334190Y298382D01*
X333714Y298144D01*
X333238Y297668D01*
X333000Y297192D01*
Y296716D02*
X333238Y296240D01*
X333714Y295764D01*
X334190Y295526D01*
X335142Y295288D01*
X335857D01*
X336809Y295526D01*
X337285Y295764D01*
X337761Y296240D01*
X337999Y296716D01*
X292499Y303286D02*
X287500D01*
X292499Y303048D02*
X287976Y300191D01*
X292023Y303048D02*
X287500Y300191D01*
X292499D02*
X287500D01*
X292499Y304000D02*
Y303048D01*
Y300905D02*
Y299477D01*
X287500Y304000D02*
Y302572D01*
X291785Y295526D02*
X291071Y295288D01*
X292499D01*
X291785Y295526D01*
X292261Y296002D01*
X292499Y296716D01*
Y297192D01*
X292261Y297906D01*
X291785Y298382D01*
X291309Y298620D01*
X290595Y298858D01*
X289404D01*
X288690Y298620D01*
X288214Y298382D01*
X287738Y297906D01*
X287500Y297192D01*
Y296716D01*
X287738Y296002D01*
X288214Y295526D01*
X288690Y295288D01*
X292499Y297192D02*
X292261Y297668D01*
X291785Y298144D01*
X291309Y298382D01*
X290595Y298620D01*
X289404D01*
X288690Y298382D01*
X288214Y298144D01*
X287738Y297668D01*
X287500Y297192D01*
X313785Y275667D02*
X313071Y275429D01*
X314499D01*
X313785Y275667D01*
X314261Y276144D01*
X314499Y276858D01*
Y277334D01*
X314261Y278048D01*
X313785Y278524D01*
X313309Y278762D01*
X312595Y279000D01*
X311404D01*
X310690Y278762D01*
X310214Y278524D01*
X309738Y278048D01*
X309500Y277334D01*
Y276858D01*
X309738Y276144D01*
X310214Y275667D01*
X310690Y275429D01*
X314499Y277334D02*
X314261Y277810D01*
X313785Y278286D01*
X313309Y278524D01*
X312595Y278762D01*
X311404D01*
X310690Y278524D01*
X310214Y278286D01*
X309738Y277810D01*
X309500Y277334D01*
X314499Y273049D02*
X314261Y273763D01*
X313785Y274239D01*
X313309Y274477D01*
X312356Y274715D01*
X311642D01*
X310690Y274477D01*
X310214Y274239D01*
X309738Y273763D01*
X309500Y273049D01*
Y272573D01*
X309738Y271859D01*
X310214Y271383D01*
X310690Y271145D01*
X311642Y270906D01*
X312356D01*
X313309Y271145D01*
X313785Y271383D01*
X314261Y271859D01*
X314499Y272573D01*
Y273049D01*
X314261Y273525D01*
X313785Y274001D01*
X313309Y274239D01*
X312356Y274477D01*
X311642D01*
X310690Y274239D01*
X310214Y274001D01*
X309738Y273525D01*
X309500Y273049D01*
Y272573D02*
X309738Y272097D01*
X310214Y271621D01*
X310690Y271383D01*
X311642Y271145D01*
X312356D01*
X313309Y271383D01*
X313785Y271621D01*
X314261Y272097D01*
X314499Y272573D01*
Y269502D02*
X309500D01*
X314499Y269264D02*
X310214Y267836D01*
X314499Y269502D02*
X309500Y267836D01*
X314499Y266169D02*
X309500Y267836D01*
X314499Y266169D02*
X309500D01*
X314499Y265931D02*
X309500D01*
X314499Y270216D02*
Y269264D01*
Y266169D02*
Y265217D01*
X309500Y270216D02*
Y268788D01*
Y266883D02*
Y265217D01*
X49343Y299056D02*
X55341Y301341D01*
X49343Y303626D01*
X51342Y302769D02*
Y299913D01*
X53913Y293371D02*
X54484Y293657D01*
X55056Y294228D01*
X55341Y294799D01*
Y295942D01*
X55056Y296513D01*
X54484Y297084D01*
X53913Y297370D01*
X53056Y297656D01*
X51628D01*
X50771Y297370D01*
X50200Y297084D01*
X49628Y296513D01*
X49343Y295942D01*
Y294799D01*
X49628Y294228D01*
X50200Y293657D01*
X50771Y293371D01*
X29842Y298555D02*
X35841Y300841D01*
X29842Y303126D01*
X31842Y302269D02*
Y299412D01*
X34413Y292871D02*
X34984Y293157D01*
X35556Y293728D01*
X35841Y294299D01*
Y295442D01*
X35556Y296013D01*
X34984Y296585D01*
X34413Y296870D01*
X33556Y297156D01*
X32128D01*
X31271Y296870D01*
X30700Y296585D01*
X30128Y296013D01*
X29842Y295442D01*
Y294299D01*
X30128Y293728D01*
X30700Y293157D01*
X31271Y292871D01*
X72413Y222626D02*
Y217484D01*
X75841Y215713D02*
X69842Y213428D01*
X75841Y211143D02*
X69842Y213428D01*
X75841Y208658D02*
X75556Y209229D01*
X74984Y209800D01*
X74413Y210086D01*
X73556Y210371D01*
X72128D01*
X71271Y210086D01*
X70700Y209800D01*
X70128Y209229D01*
X69842Y208658D01*
Y207515D01*
X70128Y206944D01*
X70700Y206372D01*
X71271Y206087D01*
X72128Y205801D01*
X73556D01*
X74413Y206087D01*
X74984Y206372D01*
X75556Y206944D01*
X75841Y207515D01*
Y208658D01*
X13484Y220555D02*
X8343D01*
X10913Y223126D02*
Y217984D01*
X14341Y216213D02*
X8343Y213928D01*
X14341Y211643D02*
X8343Y213928D01*
X14341Y209157D02*
X14056Y209729D01*
X13484Y210300D01*
X12913Y210586D01*
X12056Y210872D01*
X10628D01*
X9771Y210586D01*
X9200Y210300D01*
X8628Y209729D01*
X8343Y209157D01*
Y208015D01*
X8628Y207444D01*
X9200Y206872D01*
X9771Y206587D01*
X10628Y206301D01*
X12056D01*
X12913Y206587D01*
X13484Y206872D01*
X14056Y207444D01*
X14341Y208015D01*
Y209157D01*
X54356Y283786D02*
X54070Y284357D01*
X53499Y284929D01*
X52927Y285214D01*
X52070Y285500D01*
X50642D01*
X49785Y285214D01*
X49214Y284929D01*
X48643Y284357D01*
X48357Y283786D01*
Y282644D01*
X48643Y282072D01*
X49214Y281501D01*
X49785Y281215D01*
X50642Y280930D01*
X52070D01*
X52927Y281215D01*
X53499Y281501D01*
X54070Y282072D01*
X54356Y282644D01*
Y283786D01*
Y279530D02*
X50071D01*
X49214Y279244D01*
X48643Y278673D01*
X48357Y277816D01*
Y277245D01*
X48643Y276388D01*
X49214Y275816D01*
X50071Y275531D01*
X54356D01*
Y271874D02*
X48357D01*
X54356Y273874D02*
Y269875D01*
X51214Y269161D02*
Y266590D01*
X51499Y265733D01*
X51785Y265447D01*
X52356Y265161D01*
X53213D01*
X53784Y265447D01*
X54070Y265733D01*
X54356Y266590D01*
Y269161D01*
X48357D01*
X54356Y263819D02*
X50071D01*
X49214Y263533D01*
X48643Y262962D01*
X48357Y262105D01*
Y261534D01*
X48643Y260677D01*
X49214Y260105D01*
X50071Y259820D01*
X54356D01*
Y256163D02*
X48357D01*
X54356Y258163D02*
Y254164D01*
X52356Y253164D02*
X52070Y253450D01*
X51785Y253164D01*
X52070Y252878D01*
X52356Y253164D01*
X48928D02*
X48643Y253450D01*
X48357Y253164D01*
X48643Y252878D01*
X48928Y253164D01*
X54356Y248137D02*
Y250993D01*
X51785Y251279D01*
X52070Y250993D01*
X52356Y250136D01*
Y249279D01*
X52070Y248422D01*
X51499Y247851D01*
X50642Y247565D01*
X50071D01*
X49214Y247851D01*
X48643Y248422D01*
X48357Y249279D01*
Y250136D01*
X48643Y250993D01*
X48928Y251279D01*
X49500Y251564D01*
X54356Y246223D02*
X48357Y243937D01*
X54356Y241652D02*
X48357Y243937D01*
X47500Y240881D02*
X54356Y236882D01*
X53213Y236482D02*
X53499Y235911D01*
X54356Y235054D01*
X48357D01*
Y227512D02*
X54356Y229798D01*
X48357Y232083D01*
X50357Y231226D02*
Y228369D01*
X346972Y314499D02*
X350972Y308501D01*
Y314499D02*
X346972Y308501D01*
X355742Y313642D02*
X355456Y314214D01*
X354599Y314499D01*
X354028D01*
X353171Y314214D01*
X352600Y313357D01*
X352314Y311929D01*
Y310500D01*
X352600Y309358D01*
X353171Y308786D01*
X354028Y308501D01*
X354314D01*
X355171Y308786D01*
X355742Y309358D01*
X356028Y310215D01*
Y310500D01*
X355742Y311357D01*
X355171Y311929D01*
X354314Y312214D01*
X354028D01*
X353171Y311929D01*
X352600Y311357D01*
X352314Y310500D01*
X234472Y186499D02*
Y180501D01*
Y186499D02*
X237043D01*
X237900Y186214D01*
X238186Y185928D01*
X238472Y185357D01*
Y184785D01*
X238186Y184214D01*
X237900Y183929D01*
X237043Y183643D01*
X234472D01*
X236472D02*
X238472Y180501D01*
X243242Y185642D02*
X242956Y186214D01*
X242099Y186499D01*
X241528D01*
X240671Y186214D01*
X240100Y185357D01*
X239814Y183929D01*
Y182500D01*
X240100Y181358D01*
X240671Y180786D01*
X241528Y180501D01*
X241814D01*
X242671Y180786D01*
X243242Y181358D01*
X243528Y182215D01*
Y182500D01*
X243242Y183357D01*
X242671Y183929D01*
X241814Y184214D01*
X241528D01*
X240671Y183929D01*
X240100Y183357D01*
X239814Y182500D01*
X274372Y156785D02*
X273801Y156499D01*
X273230Y155928D01*
X272944Y155357D01*
X272658Y154500D01*
Y153071D01*
X272944Y152215D01*
X273230Y151643D01*
X273801Y151072D01*
X274372Y150786D01*
X275515D01*
X276086Y151072D01*
X276657Y151643D01*
X276943Y152215D01*
X277229Y153071D01*
Y154500D01*
X276943Y155357D01*
X276657Y155928D01*
X276086Y156499D01*
X275515Y156785D01*
X274372D01*
X275229Y151929D02*
X276943Y150215D01*
X282056Y155928D02*
X281770Y156499D01*
X280913Y156785D01*
X280342D01*
X279485Y156499D01*
X278914Y155642D01*
X278628Y154214D01*
Y152786D01*
X278914Y151643D01*
X279485Y151072D01*
X280342Y150786D01*
X280628D01*
X281485Y151072D01*
X282056Y151643D01*
X282342Y152500D01*
Y152786D01*
X282056Y153643D01*
X281485Y154214D01*
X280628Y154500D01*
X280342D01*
X279485Y154214D01*
X278914Y153643D01*
X278628Y152786D01*
X297972Y174999D02*
Y169001D01*
X301972Y174999D02*
X297972Y171000D01*
X299401Y172429D02*
X301972Y169001D01*
X306742Y174142D02*
X306456Y174714D01*
X305599Y174999D01*
X305028D01*
X304171Y174714D01*
X303600Y173857D01*
X303314Y172429D01*
Y171000D01*
X303600Y169858D01*
X304171Y169286D01*
X305028Y169001D01*
X305314D01*
X306171Y169286D01*
X306742Y169858D01*
X307028Y170715D01*
Y171000D01*
X306742Y171857D01*
X306171Y172429D01*
X305314Y172714D01*
X305028D01*
X304171Y172429D01*
X303600Y171857D01*
X303314Y171000D01*
X297472Y123499D02*
Y117501D01*
Y123499D02*
X299472D01*
X300329Y123214D01*
X300900Y122642D01*
X301186Y122071D01*
X301471Y121214D01*
Y119786D01*
X301186Y118929D01*
X300900Y118358D01*
X300329Y117786D01*
X299472Y117501D01*
X297472D01*
X306242Y122642D02*
X305956Y123214D01*
X305099Y123499D01*
X304528D01*
X303671Y123214D01*
X303100Y122357D01*
X302814Y120929D01*
Y119500D01*
X303100Y118358D01*
X303671Y117786D01*
X304528Y117501D01*
X304814D01*
X305671Y117786D01*
X306242Y118358D01*
X306528Y119215D01*
Y119500D01*
X306242Y120357D01*
X305671Y120929D01*
X304814Y121214D01*
X304528D01*
X303671Y120929D01*
X303100Y120357D01*
X302814Y119500D01*
X138115Y245499D02*
Y239501D01*
Y245499D02*
X140115D01*
X140972Y245214D01*
X141543Y244642D01*
X141829Y244071D01*
X142114Y243214D01*
Y241786D01*
X141829Y240929D01*
X141543Y240358D01*
X140972Y239786D01*
X140115Y239501D01*
X138115D01*
X143457Y244357D02*
X144028Y244642D01*
X144885Y245499D01*
Y239501D01*
X35857Y345999D02*
X39856Y340000D01*
Y345999D02*
X35857Y340000D01*
X45198Y345999D02*
X42342Y340000D01*
X41199Y345999D02*
X45198D01*
X304000D02*
X307999Y340000D01*
Y345999D02*
X304000Y340000D01*
X312770Y345999D02*
X309913D01*
X309627Y343428D01*
X309913Y343713D01*
X310770Y343999D01*
X311627D01*
X312484Y343713D01*
X313055Y343142D01*
X313341Y342285D01*
Y341714D01*
X313055Y340857D01*
X312484Y340286D01*
X311627Y340000D01*
X310770D01*
X309913Y340286D01*
X309627Y340571D01*
X309342Y341143D01*
X250500Y345999D02*
X254499Y340000D01*
Y345999D02*
X250500Y340000D01*
X258698Y345999D02*
X255842Y342000D01*
X260126D01*
X258698Y345999D02*
Y340000D01*
X197000Y345999D02*
X200999Y340000D01*
Y345999D02*
X197000Y340000D01*
X202913Y345999D02*
X206055D01*
X204341Y343713D01*
X205198D01*
X205769Y343428D01*
X206055Y343142D01*
X206341Y342285D01*
Y341714D01*
X206055Y340857D01*
X205484Y340286D01*
X204627Y340000D01*
X203770D01*
X202913Y340286D01*
X202627Y340571D01*
X202342Y341143D01*
X143500Y345999D02*
X147499Y340000D01*
Y345999D02*
X143500Y340000D01*
X149127Y344570D02*
Y344856D01*
X149413Y345427D01*
X149699Y345713D01*
X150270Y345999D01*
X151413D01*
X151984Y345713D01*
X152270Y345427D01*
X152555Y344856D01*
Y344285D01*
X152270Y343713D01*
X151698Y342857D01*
X148842Y340000D01*
X152841D01*
X90000Y345999D02*
X93999Y340000D01*
Y345999D02*
X90000Y340000D01*
X95342Y344856D02*
X95913Y345142D01*
X96770Y345999D01*
Y340000D01*
X39521Y152499D02*
X35808D01*
Y146501D01*
X39521D01*
X35808Y149643D02*
X38093D01*
X44520Y151642D02*
X43949Y152214D01*
X43092Y152499D01*
X41949D01*
X41093Y152214D01*
X40521Y151642D01*
Y151071D01*
X40807Y150500D01*
X41093Y150214D01*
X41664Y149928D01*
X43378Y149357D01*
X43949Y149072D01*
X44235Y148786D01*
X44520Y148215D01*
Y147358D01*
X43949Y146786D01*
X43092Y146501D01*
X41949D01*
X41093Y146786D01*
X40521Y147358D01*
X45863Y149357D02*
X48434D01*
X49291Y149643D01*
X49576Y149928D01*
X49862Y150500D01*
Y151357D01*
X49576Y151928D01*
X49291Y152214D01*
X48434Y152499D01*
X45863D01*
Y146501D01*
X51776Y152499D02*
X54918D01*
X53204Y150214D01*
X54061D01*
X54632Y149928D01*
X54918Y149643D01*
X55204Y148786D01*
Y148215D01*
X54918Y147358D01*
X54347Y146786D01*
X53490Y146501D01*
X52633D01*
X51776Y146786D01*
X51490Y147072D01*
X51205Y147643D01*
X56832Y151071D02*
Y151357D01*
X57118Y151928D01*
X57403Y152214D01*
X57974Y152499D01*
X59117D01*
X59689Y152214D01*
X59974Y151928D01*
X60260Y151357D01*
Y150785D01*
X59974Y150214D01*
X59403Y149357D01*
X56546Y146501D01*
X60545D01*
X61888Y149072D02*
X67030D01*
X68801Y152499D02*
Y146501D01*
Y152499D02*
X70800D01*
X71657Y152214D01*
X72229Y151642D01*
X72514Y151071D01*
X72800Y150214D01*
Y148786D01*
X72514Y147929D01*
X72229Y147358D01*
X71657Y146786D01*
X70800Y146501D01*
X68801D01*
X77856Y152499D02*
X74142D01*
Y146501D01*
X77856D01*
X74142Y149643D02*
X76428D01*
X78856Y152499D02*
X81141Y146501D01*
X83426Y152499D02*
X81141Y146501D01*
X84197Y152499D02*
Y146501D01*
X88197Y152499D02*
X84197Y148500D01*
X85626Y149928D02*
X88197Y146501D01*
X89539Y152499D02*
Y146501D01*
X92796Y152499D02*
Y146501D01*
X90796Y152499D02*
X94795D01*
X95509Y149072D02*
X100651D01*
X102422Y152499D02*
X104707Y146501D01*
X106993Y152499D02*
X104707Y146501D01*
X107764Y151357D02*
X108335Y151642D01*
X109192Y152499D01*
Y146501D01*
X150958Y180999D02*
Y176715D01*
X151244Y175858D01*
X151815Y175286D01*
X152672Y175001D01*
X153243D01*
X154100Y175286D01*
X154671Y175858D01*
X154957Y176715D01*
Y180999D01*
X156614Y179857D02*
X157185Y180142D01*
X158042Y180999D01*
Y175001D01*
X5429Y329499D02*
Y323501D01*
X3429Y329499D02*
X7428D01*
X8143Y328357D02*
X8714Y328642D01*
X9571Y329499D01*
Y323501D01*
X35786Y285622D02*
Y283051D01*
X36071Y282194D01*
X36357Y281909D01*
X36928Y281623D01*
X37785D01*
X38357Y281909D01*
X38642Y282194D01*
X38928Y283051D01*
Y285622D01*
X32929D01*
X32072Y280280D02*
X38928Y276281D01*
Y275881D02*
X32929D01*
X38928D02*
X32929Y271882D01*
X38928D02*
X32929D01*
X36928Y269940D02*
X36643Y270225D01*
X36357Y269940D01*
X36643Y269654D01*
X36928Y269940D01*
X33500D02*
X33215Y270225D01*
X32929Y269940D01*
X33215Y269654D01*
X33500Y269940D01*
X38928Y268340D02*
X32929D01*
X38928Y264341D02*
X32929D01*
X36071Y268340D02*
Y264341D01*
X38928Y262684D02*
X32929D01*
Y259256D01*
X38928Y258599D02*
X32929D01*
X38928Y254600D02*
X34929Y258599D01*
X36357Y257171D02*
X32929Y254600D01*
X35500Y253258D02*
Y248116D01*
X38928Y242917D02*
Y245774D01*
X36357Y246059D01*
X36643Y245774D01*
X36928Y244917D01*
Y244060D01*
X36643Y243203D01*
X36071Y242631D01*
X35214Y242346D01*
X34643D01*
X33786Y242631D01*
X33215Y243203D01*
X32929Y244060D01*
Y244917D01*
X33215Y245774D01*
X33500Y246059D01*
X34072Y246345D01*
X38928Y241003D02*
X32929D01*
X38928D02*
X32929Y238718D01*
X38928Y236433D02*
X32929Y238718D01*
X38928Y236433D02*
X32929D01*
X38928Y233005D02*
X38642Y233862D01*
X37785Y234433D01*
X36357Y234719D01*
X35500D01*
X34072Y234433D01*
X33215Y233862D01*
X32929Y233005D01*
Y232434D01*
X33215Y231576D01*
X34072Y231005D01*
X35500Y230720D01*
X36357D01*
X37785Y231005D01*
X38642Y231576D01*
X38928Y232434D01*
Y233005D01*
Y225949D02*
Y228806D01*
X36357Y229091D01*
X36643Y228806D01*
X36928Y227949D01*
Y227092D01*
X36643Y226235D01*
X36071Y225663D01*
X35214Y225378D01*
X34643D01*
X33786Y225663D01*
X33215Y226235D01*
X32929Y227092D01*
Y227949D01*
X33215Y228806D01*
X33500Y229091D01*
X34072Y229377D01*
X53830Y161999D02*
Y156001D01*
Y161999D02*
X56401D01*
X57257Y161714D01*
X57543Y161428D01*
X57829Y160857D01*
Y160285D01*
X57543Y159714D01*
X57257Y159429D01*
X56401Y159143D01*
X53830D01*
X55829D02*
X57829Y156001D01*
X63170Y161999D02*
X60314Y156001D01*
X59171Y161999D02*
X63170D01*
X234330Y200499D02*
Y194501D01*
Y200499D02*
X236900D01*
X237757Y200214D01*
X238043Y199928D01*
X238329Y199357D01*
Y198785D01*
X238043Y198214D01*
X237757Y197929D01*
X236900Y197643D01*
X234330D01*
X236329D02*
X238329Y194501D01*
X243099Y200499D02*
X240243D01*
X239957Y197929D01*
X240243Y198214D01*
X241100Y198500D01*
X241956D01*
X242813Y198214D01*
X243385Y197643D01*
X243670Y196786D01*
Y196215D01*
X243385Y195358D01*
X242813Y194786D01*
X241956Y194501D01*
X241100D01*
X240243Y194786D01*
X239957Y195072D01*
X239671Y195643D01*
X260687Y218999D02*
Y213001D01*
Y218999D02*
X263258D01*
X264115Y218714D01*
X264400Y218428D01*
X264686Y217857D01*
Y217285D01*
X264400Y216714D01*
X264115Y216428D01*
X263258Y216143D01*
X260687D01*
X262686D02*
X264686Y213001D01*
X268885Y218999D02*
X266028Y215000D01*
X270313D01*
X268885Y218999D02*
Y213001D01*
X186830Y226999D02*
Y221001D01*
Y226999D02*
X189400D01*
X190257Y226714D01*
X190543Y226428D01*
X190829Y225857D01*
Y225285D01*
X190543Y224714D01*
X190257Y224429D01*
X189400Y224143D01*
X186830D01*
X188829D02*
X190829Y221001D01*
X192743Y226999D02*
X195885D01*
X194171Y224714D01*
X195028D01*
X195599Y224429D01*
X195885Y224143D01*
X196170Y223286D01*
Y222715D01*
X195885Y221858D01*
X195314Y221286D01*
X194457Y221001D01*
X193600D01*
X192743Y221286D01*
X192457Y221572D01*
X192171Y222143D01*
X136830Y196499D02*
Y190501D01*
Y196499D02*
X139400D01*
X140257Y196214D01*
X140543Y195928D01*
X140829Y195357D01*
Y194785D01*
X140543Y194214D01*
X140257Y193929D01*
X139400Y193643D01*
X136830D01*
X138829D02*
X140829Y190501D01*
X142457Y195071D02*
Y195357D01*
X142743Y195928D01*
X143028Y196214D01*
X143600Y196499D01*
X144742D01*
X145314Y196214D01*
X145599Y195928D01*
X145885Y195357D01*
Y194785D01*
X145599Y194214D01*
X145028Y193357D01*
X142171Y190501D01*
X146170D01*
X126615Y196499D02*
Y190501D01*
Y196499D02*
X129186D01*
X130043Y196214D01*
X130329Y195928D01*
X130614Y195357D01*
Y194785D01*
X130329Y194214D01*
X130043Y193929D01*
X129186Y193643D01*
X126615D01*
X128615D02*
X130614Y190501D01*
X131957Y195357D02*
X132528Y195642D01*
X133385Y196499D01*
Y190501D01*
X285229Y189285D02*
X284658Y188999D01*
X284087Y188428D01*
X283801Y187857D01*
X283515Y187000D01*
Y185572D01*
X283801Y184715D01*
X284087Y184143D01*
X284658Y183572D01*
X285229Y183286D01*
X286372D01*
X286943Y183572D01*
X287514Y184143D01*
X287800Y184715D01*
X288086Y185572D01*
Y187000D01*
X287800Y187857D01*
X287514Y188428D01*
X286943Y188999D01*
X286372Y189285D01*
X285229D01*
X286086Y184429D02*
X287800Y182715D01*
X292913Y189285D02*
X290057D01*
X289771Y186714D01*
X290057Y187000D01*
X290914Y187285D01*
X291771D01*
X292628Y187000D01*
X293199Y186428D01*
X293485Y185572D01*
Y185000D01*
X293199Y184143D01*
X292628Y183572D01*
X291771Y183286D01*
X290914D01*
X290057Y183572D01*
X289771Y183858D01*
X289486Y184429D01*
X288586Y225785D02*
X288015Y225499D01*
X287444Y224928D01*
X287158Y224357D01*
X286873Y223500D01*
Y222072D01*
X287158Y221215D01*
X287444Y220643D01*
X288015Y220072D01*
X288586Y219786D01*
X289729D01*
X290300Y220072D01*
X290872Y220643D01*
X291157Y221215D01*
X291443Y222072D01*
Y223500D01*
X291157Y224357D01*
X290872Y224928D01*
X290300Y225499D01*
X289729Y225785D01*
X288586D01*
X289443Y220929D02*
X291157Y219215D01*
X295699Y225785D02*
X292843Y221786D01*
X297128D01*
X295699Y225785D02*
Y219786D01*
X229229Y224785D02*
X228658Y224499D01*
X228087Y223928D01*
X227801Y223357D01*
X227515Y222500D01*
Y221072D01*
X227801Y220215D01*
X228087Y219643D01*
X228658Y219072D01*
X229229Y218786D01*
X230372D01*
X230943Y219072D01*
X231515Y219643D01*
X231800Y220215D01*
X232086Y221072D01*
Y222500D01*
X231800Y223357D01*
X231515Y223928D01*
X230943Y224499D01*
X230372Y224785D01*
X229229D01*
X230086Y219929D02*
X231800Y218215D01*
X234057Y224785D02*
X237199D01*
X235485Y222500D01*
X236342D01*
X236913Y222214D01*
X237199Y221929D01*
X237485Y221072D01*
Y220500D01*
X237199Y219643D01*
X236628Y219072D01*
X235771Y218786D01*
X234914D01*
X234057Y219072D01*
X233771Y219358D01*
X233486Y219929D01*
X162729Y224785D02*
X162158Y224499D01*
X161587Y223928D01*
X161301Y223357D01*
X161015Y222500D01*
Y221072D01*
X161301Y220215D01*
X161587Y219643D01*
X162158Y219072D01*
X162729Y218786D01*
X163872D01*
X164443Y219072D01*
X165015Y219643D01*
X165300Y220215D01*
X165586Y221072D01*
Y222500D01*
X165300Y223357D01*
X165015Y223928D01*
X164443Y224499D01*
X163872Y224785D01*
X162729D01*
X163586Y219929D02*
X165300Y218215D01*
X167271Y223357D02*
Y223642D01*
X167557Y224214D01*
X167842Y224499D01*
X168414Y224785D01*
X169556D01*
X170128Y224499D01*
X170413Y224214D01*
X170699Y223642D01*
Y223071D01*
X170413Y222500D01*
X169842Y221643D01*
X166985Y218786D01*
X170985D01*
X112015Y216785D02*
X111443Y216499D01*
X110872Y215928D01*
X110586Y215357D01*
X110301Y214500D01*
Y213071D01*
X110586Y212215D01*
X110872Y211643D01*
X111443Y211072D01*
X112015Y210786D01*
X113157D01*
X113729Y211072D01*
X114300Y211643D01*
X114586Y212215D01*
X114871Y213071D01*
Y214500D01*
X114586Y215357D01*
X114300Y215928D01*
X113729Y216499D01*
X113157Y216785D01*
X112015D01*
X112872Y211929D02*
X114586Y210215D01*
X116271Y215642D02*
X116842Y215928D01*
X117699Y216785D01*
Y210786D01*
X372330Y246999D02*
Y241001D01*
X376329Y246999D02*
X372330Y243000D01*
X373758Y244428D02*
X376329Y241001D01*
X381099Y246999D02*
X378243D01*
X377957Y244428D01*
X378243Y244714D01*
X379100Y245000D01*
X379957D01*
X380814Y244714D01*
X381385Y244143D01*
X381670Y243286D01*
Y242715D01*
X381385Y241858D01*
X380814Y241286D01*
X379957Y241001D01*
X379100D01*
X378243Y241286D01*
X377957Y241572D01*
X377671Y242143D01*
X282500Y333399D02*
Y327400D01*
X286499Y333399D02*
X282500Y329400D01*
X283928Y330828D02*
X286499Y327400D01*
X290698Y333399D02*
X287842Y329400D01*
X292126D01*
X290698Y333399D02*
Y327400D01*
X219500Y333399D02*
Y327400D01*
X223499Y333399D02*
X219500Y329400D01*
X220928Y330828D02*
X223499Y327400D01*
X225413Y333399D02*
X228555D01*
X226841Y331114D01*
X227698D01*
X228270Y330828D01*
X228555Y330542D01*
X228841Y329685D01*
Y329114D01*
X228555Y328257D01*
X227984Y327686D01*
X227127Y327400D01*
X226270D01*
X225413Y327686D01*
X225127Y327971D01*
X224842Y328543D01*
X156500Y333399D02*
Y327400D01*
X160499Y333399D02*
X156500Y329400D01*
X157928Y330828D02*
X160499Y327400D01*
X162127Y331970D02*
Y332256D01*
X162413Y332827D01*
X162699Y333113D01*
X163270Y333399D01*
X164413D01*
X164984Y333113D01*
X165270Y332827D01*
X165555Y332256D01*
Y331685D01*
X165270Y331114D01*
X164698Y330257D01*
X161842Y327400D01*
X165841D01*
X93500Y333399D02*
Y327400D01*
X97499Y333399D02*
X93500Y329400D01*
X94928Y330828D02*
X97499Y327400D01*
X98842Y332256D02*
X99413Y332542D01*
X100270Y333399D01*
Y327400D01*
X305661Y16999D02*
Y11001D01*
Y16999D02*
X307946Y11001D01*
X310231Y16999D02*
X307946Y11001D01*
X310231Y16999D02*
Y11001D01*
X311945Y16999D02*
Y11001D01*
Y16999D02*
X315659D01*
X311945Y14143D02*
X314231D01*
X316344Y16999D02*
Y11001D01*
Y16999D02*
X318915D01*
X319772Y16714D01*
X320058Y16428D01*
X320344Y15857D01*
Y15285D01*
X320058Y14714D01*
X319772Y14428D01*
X318915Y14143D01*
X316344D01*
X318344D02*
X320344Y11001D01*
X325971Y15571D02*
X325685Y16142D01*
X325114Y16714D01*
X324543Y16999D01*
X323400D01*
X322829Y16714D01*
X322257Y16142D01*
X321972Y15571D01*
X321686Y14714D01*
Y13286D01*
X321972Y12429D01*
X322257Y11858D01*
X322829Y11286D01*
X323400Y11001D01*
X324543D01*
X325114Y11286D01*
X325685Y11858D01*
X325971Y12429D01*
X331084Y16999D02*
X328228D01*
X327942Y14428D01*
X328228Y14714D01*
X329085Y15000D01*
X329942D01*
X330799Y14714D01*
X331370Y14143D01*
X331656Y13286D01*
Y12715D01*
X331370Y11858D01*
X330799Y11286D01*
X329942Y11001D01*
X329085D01*
X328228Y11286D01*
X327942Y11572D01*
X327656Y12143D01*
X333284Y15571D02*
Y15857D01*
X333569Y16428D01*
X333855Y16714D01*
X334426Y16999D01*
X335569D01*
X336140Y16714D01*
X336426Y16428D01*
X336712Y15857D01*
Y15285D01*
X336426Y14714D01*
X335855Y13857D01*
X332998Y11001D01*
X336997D01*
X338625Y15571D02*
Y15857D01*
X338911Y16428D01*
X339197Y16714D01*
X339768Y16999D01*
X340911D01*
X341482Y16714D01*
X341768Y16428D01*
X342053Y15857D01*
Y15285D01*
X341768Y14714D01*
X341196Y13857D01*
X338340Y11001D01*
X342339D01*
X278501Y73046D02*
X284499D01*
X278501D02*
Y75617D01*
X278786Y76474D01*
X279072Y76760D01*
X279643Y77046D01*
X280215D01*
X280786Y76760D01*
X281071Y76474D01*
X281357Y75617D01*
Y73046D02*
Y75617D01*
X281643Y76474D01*
X281928Y76760D01*
X282500Y77046D01*
X283357D01*
X283928Y76760D01*
X284214Y76474D01*
X284499Y75617D01*
Y73046D01*
X278501Y80102D02*
X278786Y79531D01*
X279358Y78959D01*
X279929Y78674D01*
X280786Y78388D01*
X282214D01*
X283071Y78674D01*
X283642Y78959D01*
X284214Y79531D01*
X284499Y80102D01*
Y81245D01*
X284214Y81816D01*
X283642Y82387D01*
X283071Y82673D01*
X282214Y82959D01*
X280786D01*
X279929Y82673D01*
X279358Y82387D01*
X278786Y81816D01*
X278501Y81245D01*
Y80102D01*
Y84358D02*
X284499D01*
X278501D02*
Y86929D01*
X278786Y87786D01*
X279072Y88072D01*
X279643Y88357D01*
X280215D01*
X280786Y88072D01*
X281071Y87786D01*
X281357Y86929D01*
Y84358D02*
Y86929D01*
X281643Y87786D01*
X281928Y88072D01*
X282500Y88357D01*
X283357D01*
X283928Y88072D01*
X284214Y87786D01*
X284499Y86929D01*
Y84358D01*
X278501Y89700D02*
X284499D01*
X278501D02*
Y92271D01*
X278786Y93128D01*
X279072Y93414D01*
X279643Y93699D01*
X280215D01*
X280786Y93414D01*
X281071Y93128D01*
X281357Y92271D01*
Y89700D02*
Y92271D01*
X281643Y93128D01*
X281928Y93414D01*
X282500Y93699D01*
X283357D01*
X283928Y93414D01*
X284214Y93128D01*
X284499Y92271D01*
Y89700D01*
X278501Y95042D02*
X284499D01*
X278501Y96298D02*
X284499D01*
X278501D02*
X284499Y100298D01*
X278501D02*
X284499D01*
X279929Y102240D02*
X279643D01*
X279072Y102526D01*
X278786Y102811D01*
X278501Y103383D01*
Y104525D01*
X278786Y105097D01*
X279072Y105382D01*
X279643Y105668D01*
X280215D01*
X280786Y105382D01*
X281643Y104811D01*
X284499Y101954D01*
Y105954D01*
X316001Y72332D02*
X321999D01*
X316001D02*
Y74903D01*
X316286Y75760D01*
X316572Y76045D01*
X317143Y76331D01*
X317715D01*
X318286Y76045D01*
X318571Y75760D01*
X318857Y74903D01*
Y72332D02*
Y74903D01*
X319143Y75760D01*
X319428Y76045D01*
X320000Y76331D01*
X320857D01*
X321428Y76045D01*
X321714Y75760D01*
X321999Y74903D01*
Y72332D01*
X316001Y79387D02*
X316286Y78816D01*
X316858Y78245D01*
X317429Y77959D01*
X318286Y77674D01*
X319714D01*
X320571Y77959D01*
X321142Y78245D01*
X321714Y78816D01*
X321999Y79387D01*
Y80530D01*
X321714Y81101D01*
X321142Y81673D01*
X320571Y81958D01*
X319714Y82244D01*
X318286D01*
X317429Y81958D01*
X316858Y81673D01*
X316286Y81101D01*
X316001Y80530D01*
Y79387D01*
Y83644D02*
X321999D01*
X316001D02*
Y86215D01*
X316286Y87072D01*
X316572Y87357D01*
X317143Y87643D01*
X317715D01*
X318286Y87357D01*
X318571Y87072D01*
X318857Y86215D01*
Y83644D02*
Y86215D01*
X319143Y87072D01*
X319428Y87357D01*
X320000Y87643D01*
X320857D01*
X321428Y87357D01*
X321714Y87072D01*
X321999Y86215D01*
Y83644D01*
X316001Y88985D02*
X321999D01*
X316001D02*
Y91556D01*
X316286Y92413D01*
X316572Y92699D01*
X317143Y92984D01*
X317715D01*
X318286Y92699D01*
X318571Y92413D01*
X318857Y91556D01*
Y88985D02*
Y91556D01*
X319143Y92413D01*
X319428Y92699D01*
X320000Y92984D01*
X320857D01*
X321428Y92699D01*
X321714Y92413D01*
X321999Y91556D01*
Y88985D01*
X316001Y94327D02*
X321999D01*
X316001Y95584D02*
X321999D01*
X316001D02*
X321999Y99583D01*
X316001D02*
X321999D01*
X317143Y101240D02*
X316858Y101811D01*
X316001Y102668D01*
X321999D01*
X354429Y71174D02*
X353858Y70888D01*
X353286Y70317D01*
X353001Y69746D01*
Y68603D01*
X353286Y68032D01*
X353858Y67461D01*
X354429Y67175D01*
X355286Y66889D01*
X356714D01*
X357571Y67175D01*
X358142Y67461D01*
X358714Y68032D01*
X358999Y68603D01*
Y69746D01*
X358714Y70317D01*
X358142Y70888D01*
X357571Y71174D01*
X356714D01*
Y69746D02*
Y71174D01*
X353001Y72545D02*
X358999D01*
X353001D02*
X358999Y74830D01*
X353001Y77116D02*
X358999Y74830D01*
X353001Y77116D02*
X358999D01*
X353858Y82257D02*
X353286Y81972D01*
X353001Y81115D01*
Y80544D01*
X353286Y79686D01*
X354143Y79115D01*
X355572Y78830D01*
X357000D01*
X358142Y79115D01*
X358714Y79686D01*
X358999Y80544D01*
Y80829D01*
X358714Y81686D01*
X358142Y82257D01*
X357285Y82543D01*
X357000D01*
X356143Y82257D01*
X355572Y81686D01*
X355286Y80829D01*
Y80544D01*
X355572Y79686D01*
X356143Y79115D01*
X357000Y78830D01*
X353001Y87285D02*
Y84428D01*
X355572Y84143D01*
X355286Y84428D01*
X355000Y85285D01*
Y86142D01*
X355286Y86999D01*
X355857Y87571D01*
X356714Y87856D01*
X357285D01*
X358142Y87571D01*
X358714Y86999D01*
X358999Y86142D01*
Y85285D01*
X358714Y84428D01*
X358428Y84143D01*
X357857Y83857D01*
X356429Y89199D02*
Y94340D01*
X354429Y96397D02*
X354143D01*
X353572Y96683D01*
X353286Y96969D01*
X353001Y97540D01*
Y98682D01*
X353286Y99254D01*
X353572Y99539D01*
X354143Y99825D01*
X354714D01*
X355286Y99539D01*
X356143Y98968D01*
X358999Y96112D01*
Y100111D01*
X16071Y99541D02*
X16642Y99826D01*
X17214Y100397D01*
X17499Y100969D01*
Y102111D01*
X17214Y102683D01*
X16642Y103254D01*
X16071Y103540D01*
X15214Y103825D01*
X13786D01*
X12929Y103540D01*
X12358Y103254D01*
X11786Y102683D01*
X11501Y102111D01*
Y100969D01*
X11786Y100397D01*
X12358Y99826D01*
X12929Y99541D01*
X13786D01*
Y100969D02*
Y99541D01*
X17499Y98169D02*
X11501D01*
X17499D02*
X11501Y95884D01*
X17499Y93599D02*
X11501Y95884D01*
X17499Y93599D02*
X11501D01*
X16642Y88457D02*
X17214Y88743D01*
X17499Y89600D01*
Y90171D01*
X17214Y91028D01*
X16357Y91599D01*
X14929Y91885D01*
X13500D01*
X12358Y91599D01*
X11786Y91028D01*
X11501Y90171D01*
Y89885D01*
X11786Y89028D01*
X12358Y88457D01*
X13215Y88171D01*
X13500D01*
X14357Y88457D01*
X14929Y89028D01*
X15214Y89885D01*
Y90171D01*
X14929Y91028D01*
X14357Y91599D01*
X13500Y91885D01*
X17499Y83430D02*
Y86286D01*
X14929Y86572D01*
X15214Y86286D01*
X15500Y85429D01*
Y84572D01*
X15214Y83715D01*
X14643Y83144D01*
X13786Y82858D01*
X13215D01*
X12358Y83144D01*
X11786Y83715D01*
X11501Y84572D01*
Y85429D01*
X11786Y86286D01*
X12072Y86572D01*
X12643Y86857D01*
X14072Y81516D02*
Y76374D01*
X16357Y74603D02*
X16642Y74032D01*
X17499Y73175D01*
X11501D01*
X3586Y358999D02*
Y353001D01*
Y358999D02*
X7300D01*
X3586Y356143D02*
X5872D01*
X7985Y357857D02*
X8557Y358142D01*
X9414Y358999D01*
Y353001D01*
X96519Y167357D02*
X99090D01*
X99947Y167643D01*
X100232Y167929D01*
X100518Y168500D01*
Y169357D01*
X100232Y169928D01*
X99947Y170214D01*
X99090Y170499D01*
X96519D01*
Y164501D01*
X103575Y170499D02*
X103003Y170214D01*
X102432Y169642D01*
X102146Y169071D01*
X101861Y168214D01*
Y166786D01*
X102146Y165929D01*
X102432Y165358D01*
X103003Y164786D01*
X103575Y164501D01*
X104717D01*
X105288Y164786D01*
X105860Y165358D01*
X106145Y165929D01*
X106431Y166786D01*
Y168214D01*
X106145Y169071D01*
X105860Y169642D01*
X105288Y170214D01*
X104717Y170499D01*
X103575D01*
X107831D02*
X109259Y164501D01*
X110687Y170499D02*
X109259Y164501D01*
X110687Y170499D02*
X112116Y164501D01*
X113544Y170499D02*
X112116Y164501D01*
X118457Y170499D02*
X114744D01*
Y164501D01*
X118457D01*
X114744Y167643D02*
X117029D01*
X119457Y170499D02*
Y164501D01*
Y170499D02*
X122028D01*
X122885Y170214D01*
X123170Y169928D01*
X123456Y169357D01*
Y168785D01*
X123170Y168214D01*
X122885Y167929D01*
X122028Y167643D01*
X119457D01*
X121456D02*
X123456Y164501D01*
X131226Y170499D02*
X130654Y170214D01*
X130083Y169642D01*
X129797Y169071D01*
X129512Y168214D01*
Y166786D01*
X129797Y165929D01*
X130083Y165358D01*
X130654Y164786D01*
X131226Y164501D01*
X132368D01*
X132940Y164786D01*
X133511Y165358D01*
X133797Y165929D01*
X134082Y166786D01*
Y168214D01*
X133797Y169071D01*
X133511Y169642D01*
X132940Y170214D01*
X132368Y170499D01*
X131226D01*
X135482D02*
Y164501D01*
Y170499D02*
X139481Y164501D01*
Y170499D02*
Y164501D01*
X297830Y186499D02*
Y180501D01*
Y186499D02*
X299829D01*
X300686Y186214D01*
X301257Y185642D01*
X301543Y185071D01*
X301829Y184214D01*
Y182786D01*
X301543Y181929D01*
X301257Y181358D01*
X300686Y180786D01*
X299829Y180501D01*
X297830D01*
X306599Y186499D02*
X303743D01*
X303457Y183929D01*
X303743Y184214D01*
X304600Y184500D01*
X305456D01*
X306313Y184214D01*
X306885Y183643D01*
X307170Y182786D01*
Y182215D01*
X306885Y181358D01*
X306313Y180786D01*
X305456Y180501D01*
X304600D01*
X303743Y180786D01*
X303457Y181072D01*
X303171Y181643D01*
X329687Y247999D02*
Y242001D01*
Y247999D02*
X331686D01*
X332543Y247714D01*
X333115Y247142D01*
X333400Y246571D01*
X333686Y245714D01*
Y244286D01*
X333400Y243429D01*
X333115Y242858D01*
X332543Y242286D01*
X331686Y242001D01*
X329687D01*
X337885Y247999D02*
X335029Y244000D01*
X339313D01*
X337885Y247999D02*
Y242001D01*
X265330Y246999D02*
Y241001D01*
Y246999D02*
X267329D01*
X268186Y246714D01*
X268757Y246142D01*
X269043Y245571D01*
X269329Y244714D01*
Y243286D01*
X269043Y242429D01*
X268757Y241858D01*
X268186Y241286D01*
X267329Y241001D01*
X265330D01*
X271243Y246999D02*
X274385D01*
X272671Y244714D01*
X273528D01*
X274099Y244428D01*
X274385Y244143D01*
X274670Y243286D01*
Y242715D01*
X274385Y241858D01*
X273814Y241286D01*
X272956Y241001D01*
X272100D01*
X271243Y241286D01*
X270957Y241572D01*
X270671Y242143D01*
X201830Y246999D02*
Y241001D01*
Y246999D02*
X203829D01*
X204686Y246714D01*
X205257Y246142D01*
X205543Y245571D01*
X205829Y244714D01*
Y243286D01*
X205543Y242429D01*
X205257Y241858D01*
X204686Y241286D01*
X203829Y241001D01*
X201830D01*
X207457Y245571D02*
Y245857D01*
X207743Y246428D01*
X208028Y246714D01*
X208600Y246999D01*
X209742D01*
X210314Y246714D01*
X210599Y246428D01*
X210885Y245857D01*
Y245285D01*
X210599Y244714D01*
X210028Y243857D01*
X207171Y241001D01*
X211170D01*
D13*
X236878Y120567D02*
Y142024D01*
Y50921D02*
Y120567D01*
Y29780D02*
Y50921D01*
X36287Y142024D02*
X236878D01*
X36287Y29780D02*
X236878D01*
X36287Y99780D02*
Y142024D01*
Y73358D02*
Y99780D01*
Y29780D02*
Y73358D01*
Y29780D02*
X236878D01*
X36287D02*
Y142024D01*
X236878Y29780D02*
Y142024D01*
X36287D02*
X236878D01*
X3472Y321555D02*
X82213D01*
Y187697D02*
Y321555D01*
X3472Y187697D02*
X82213D01*
X3472D02*
Y321555D01*
D14*
X298500Y138000D02*
X306500D01*
X298500Y153000D02*
X302500D01*
X298500Y135000D02*
Y153000D01*
Y135000D02*
X306500D01*
Y153000D01*
X302500D02*
X306500D01*
X302500Y134100D02*
Y135000D01*
Y153000D02*
Y153900D01*
X251500Y177500D02*
X253500D01*
X269500D02*
X271400D01*
X253500D02*
Y180500D01*
X269500D01*
Y174500D02*
Y180500D01*
X253500Y174500D02*
X269500D01*
X253500D02*
Y177500D01*
X108600Y243000D02*
X109500D01*
X127500D02*
X128400D01*
X109500D02*
Y247000D01*
X127500D01*
Y239000D02*
Y247000D01*
X109500Y239000D02*
X127500D01*
X109500D02*
Y243000D01*
X124500Y239000D02*
Y247000D01*
X129000Y209000D02*
X132000D01*
Y225000D01*
X126000D02*
X132000D01*
X126000Y209000D02*
Y225000D01*
Y209000D02*
X129000D01*
Y225000D02*
Y226900D01*
Y207000D02*
Y209000D01*
X141000D02*
X144000D01*
Y225000D01*
X138000D02*
X144000D01*
X138000Y209000D02*
Y225000D01*
Y209000D02*
X141000D01*
Y225000D02*
Y226900D01*
Y207000D02*
Y209000D01*
X172100Y244000D02*
X173000D01*
X191000D02*
X191900D01*
X173000D02*
Y248000D01*
X191000D01*
Y240000D02*
Y248000D01*
X173000Y240000D02*
X191000D01*
X173000D02*
Y244000D01*
X188000Y240000D02*
Y248000D01*
X181500Y229000D02*
Y232000D01*
Y229000D02*
X197500D01*
Y235000D01*
X181500D02*
X197500D01*
X181500Y232000D02*
Y235000D01*
X197500Y232000D02*
X199400D01*
X179500D02*
X181500D01*
X235600Y244000D02*
X236500D01*
X254500D02*
X255400D01*
X236500D02*
Y248000D01*
X254500D01*
Y240000D02*
Y248000D01*
X236500Y240000D02*
X254500D01*
X236500D02*
Y244000D01*
X251500Y240000D02*
Y248000D01*
X255000Y209500D02*
X258000D01*
Y225500D01*
X252000D02*
X258000D01*
X252000Y209500D02*
Y225500D01*
Y209500D02*
X255000D01*
Y225500D02*
Y227400D01*
Y207500D02*
Y209500D01*
X299100Y244500D02*
X300000D01*
X318000D02*
X318900D01*
X300000D02*
Y248500D01*
X318000D01*
Y240500D02*
Y248500D01*
X300000Y240500D02*
X318000D01*
X300000D02*
Y244500D01*
X315000Y240500D02*
Y248500D01*
X253500Y188500D02*
Y191500D01*
Y188500D02*
X269500D01*
Y194500D01*
X253500D02*
X269500D01*
X253500Y191500D02*
Y194500D01*
X269500Y191500D02*
X271400D01*
X251500D02*
X253500D01*
X302500Y216000D02*
Y216900D01*
Y197100D02*
Y198000D01*
Y216000D02*
X306500D01*
Y198000D02*
Y216000D01*
X298500Y198000D02*
X306500D01*
X298500D02*
Y216000D01*
X302500D01*
X298500Y201000D02*
X306500D01*
X90500Y159000D02*
X92500D01*
X72600D02*
X74500D01*
X90500Y156000D02*
Y159000D01*
X74500Y156000D02*
X90500D01*
X74500D02*
Y162000D01*
X90500D01*
Y159000D02*
Y162000D01*
D15*
X3409Y331157D02*
X34905D01*
X3409Y350842D02*
X34905D01*
X3409Y331157D02*
Y341000D01*
Y350842D01*
X34905Y331157D02*
Y350842D01*
D16*
X36075Y17383D02*
Y5575D01*
Y17383D02*
X40573Y5575D01*
X45072Y17383D02*
X40573Y5575D01*
X45072Y17383D02*
Y5575D01*
X51257Y13447D02*
X50133Y12885D01*
X49008Y11760D01*
X48446Y10073D01*
Y8949D01*
X49008Y7262D01*
X50133Y6137D01*
X51257Y5575D01*
X52944D01*
X54069Y6137D01*
X55193Y7262D01*
X55756Y8949D01*
Y10073D01*
X55193Y11760D01*
X54069Y12885D01*
X52944Y13447D01*
X51257D01*
X65090Y17383D02*
Y5575D01*
Y11760D02*
X63965Y12885D01*
X62841Y13447D01*
X61154D01*
X60029Y12885D01*
X58904Y11760D01*
X58342Y10073D01*
Y8949D01*
X58904Y7262D01*
X60029Y6137D01*
X61154Y5575D01*
X62841D01*
X63965Y6137D01*
X65090Y7262D01*
X68239Y10073D02*
X74987D01*
Y11198D01*
X74424Y12323D01*
X73862Y12885D01*
X72737Y13447D01*
X71050D01*
X69926Y12885D01*
X68801Y11760D01*
X68239Y10073D01*
Y8949D01*
X68801Y7262D01*
X69926Y6137D01*
X71050Y5575D01*
X72737D01*
X73862Y6137D01*
X74987Y7262D01*
X77517Y17383D02*
Y5575D01*
X80553Y13447D02*
X79991Y12885D01*
X80553Y12323D01*
X81116Y12885D01*
X80553Y13447D01*
Y6699D02*
X79991Y6137D01*
X80553Y5575D01*
X81116Y6137D01*
X80553Y6699D01*
D17*
X302500Y136500D02*
D03*
Y199500D02*
D03*
D18*
X126000Y243000D02*
D03*
X189500Y244000D02*
D03*
X253000D02*
D03*
X316500Y244500D02*
D03*
M02*
