G04*
G04 #@! TF.GenerationSoftware,Altium Limited,Altium Designer,24.3.1 (35)*
G04*
G04 Layer_Color=128*
%FSLAX25Y25*%
%MOIN*%
G70*
G04*
G04 #@! TF.SameCoordinates,1CC19C7B-97DE-4EE6-9EAD-702A75026B31*
G04*
G04*
G04 #@! TF.FilePolarity,Positive*
G04*
G01*
G75*
%ADD13C,0.00500*%
D13*
X7410Y173917D02*
X11347D01*
X9378Y171949D02*
Y175886D01*
X78276Y173917D02*
X82213D01*
X80244Y171949D02*
Y175886D01*
X31032Y312500D02*
X34969D01*
X33000Y310531D02*
Y314469D01*
X54654Y312500D02*
X58591D01*
X56622Y310531D02*
Y314469D01*
X213492Y136000D02*
X217508D01*
X215500Y133992D02*
Y138008D01*
X203492Y136000D02*
X207508D01*
X205500Y133992D02*
Y138008D01*
X193492Y136000D02*
X197508D01*
X195500Y133992D02*
Y138008D01*
X183492Y136000D02*
X187508D01*
X185500Y133992D02*
Y138008D01*
X173492Y136000D02*
X177508D01*
X175500Y133992D02*
Y138008D01*
X163492Y136000D02*
X167508D01*
X165500Y133992D02*
Y138008D01*
X153492Y136000D02*
X157508D01*
X155500Y133992D02*
Y138008D01*
X143492Y136000D02*
X147508D01*
X145500Y133992D02*
Y138008D01*
X133492Y136000D02*
X137508D01*
X135500Y133992D02*
Y138008D01*
X123492Y136000D02*
X127508D01*
X125500Y133992D02*
Y138008D01*
X113492Y136000D02*
X117508D01*
X115500Y133992D02*
Y138008D01*
X103492Y136000D02*
X107508D01*
X105500Y133992D02*
Y138008D01*
X93492Y136000D02*
X97508D01*
X95500Y133992D02*
Y138008D01*
X83492Y136000D02*
X87508D01*
X85500Y133992D02*
Y138008D01*
X73492Y136000D02*
X77508D01*
X75500Y133992D02*
Y138008D01*
X213492Y36000D02*
X217508D01*
X215500Y33992D02*
Y38008D01*
X203492Y36000D02*
X207508D01*
X205500Y33992D02*
Y38008D01*
X193492Y36000D02*
X197508D01*
X195500Y33992D02*
Y38008D01*
X183492Y36000D02*
X187508D01*
X185500Y33992D02*
Y38008D01*
X173492Y36000D02*
X177508D01*
X175500Y33992D02*
Y38008D01*
X163492Y36000D02*
X167508D01*
X165500Y33992D02*
Y38008D01*
X153492Y36000D02*
X157508D01*
X155500Y33992D02*
Y38008D01*
X143492Y36000D02*
X147508D01*
X145500Y33992D02*
Y38008D01*
X133492Y36000D02*
X137508D01*
X135500Y33992D02*
Y38008D01*
X123492Y36000D02*
X127508D01*
X125500Y33992D02*
Y38008D01*
X113492Y36000D02*
X117508D01*
X115500Y33992D02*
Y38008D01*
X103492Y36000D02*
X107508D01*
X105500Y33992D02*
Y38008D01*
X93492Y36000D02*
X97508D01*
X95500Y33992D02*
Y38008D01*
X83492Y36000D02*
X87508D01*
X85500Y33992D02*
Y38008D01*
X73492Y36000D02*
X77508D01*
X75500Y33992D02*
Y38008D01*
X287925Y174000D02*
X291075D01*
X289500Y172425D02*
Y175575D01*
X278425Y165500D02*
X281575D01*
X280000Y163925D02*
Y167075D01*
X287925Y157000D02*
X291075D01*
X289500Y155425D02*
Y158575D01*
X382047Y299000D02*
X387953D01*
X385000Y296047D02*
Y301953D01*
X382047Y269000D02*
X387953D01*
X385000Y266047D02*
Y271953D01*
X362047Y299000D02*
X367953D01*
X365000Y296047D02*
Y301953D01*
X362047Y269000D02*
X367953D01*
X365000Y266047D02*
Y271953D01*
X301122Y159000D02*
X303878D01*
X302500Y157622D02*
Y160378D01*
X301122Y129000D02*
X303878D01*
X302500Y127622D02*
Y130378D01*
X322400Y166500D02*
X327600D01*
X325000Y163900D02*
Y169100D01*
X322400Y121500D02*
X327600D01*
X325000Y118900D02*
Y124100D01*
X314400Y144500D02*
X319600D01*
X317000Y141900D02*
Y147100D01*
X370400Y166500D02*
X375600D01*
X373000Y163900D02*
Y169100D01*
X370400Y121500D02*
X375600D01*
X373000Y118900D02*
Y124100D01*
X274925Y177500D02*
X278075D01*
X276500Y175925D02*
Y179075D01*
X244925Y177500D02*
X248075D01*
X246500Y175925D02*
Y179075D01*
X108228Y181000D02*
X111772D01*
X110000Y179228D02*
Y182772D01*
X108228Y191000D02*
X111772D01*
X110000Y189228D02*
Y192772D01*
X101925Y233500D02*
X105075D01*
X103500Y231925D02*
Y235075D01*
X111425Y225000D02*
X114575D01*
X113000Y223425D02*
Y226575D01*
X101925Y216500D02*
X105075D01*
X103500Y214925D02*
Y218075D01*
X132122Y243000D02*
X134878D01*
X133500Y241622D02*
Y244378D01*
X102122Y243000D02*
X104878D01*
X103500Y241622D02*
Y244378D01*
X127425Y202000D02*
X130575D01*
X129000Y200425D02*
Y203575D01*
X127425Y232000D02*
X130575D01*
X129000Y230425D02*
Y233575D01*
X151425Y240500D02*
X154575D01*
X153000Y238925D02*
Y242075D01*
X160925Y232000D02*
X164075D01*
X162500Y230425D02*
Y233575D01*
X151425Y223500D02*
X154575D01*
X153000Y221925D02*
Y225075D01*
X139425Y202000D02*
X142575D01*
X141000Y200425D02*
Y203575D01*
X139425Y232000D02*
X142575D01*
X141000Y230425D02*
Y233575D01*
X195622Y244000D02*
X198378D01*
X197000Y242622D02*
Y245378D01*
X165622Y244000D02*
X168378D01*
X167000Y242622D02*
Y245378D01*
X172925Y232000D02*
X176075D01*
X174500Y230425D02*
Y233575D01*
X202925Y232000D02*
X206075D01*
X204500Y230425D02*
Y233575D01*
X217925Y240500D02*
X221075D01*
X219500Y238925D02*
Y242075D01*
X227425Y232000D02*
X230575D01*
X229000Y230425D02*
Y233575D01*
X217925Y223500D02*
X221075D01*
X219500Y221925D02*
Y225075D01*
X259122Y244000D02*
X261878D01*
X260500Y242622D02*
Y245378D01*
X229122Y244000D02*
X231878D01*
X230500Y242622D02*
Y245378D01*
X253425Y202500D02*
X256575D01*
X255000Y200925D02*
Y204075D01*
X253425Y232500D02*
X256575D01*
X255000Y230925D02*
Y234075D01*
X277425Y241000D02*
X280575D01*
X279000Y239425D02*
Y242575D01*
X286925Y232500D02*
X290075D01*
X288500Y230925D02*
Y234075D01*
X277425Y224000D02*
X280575D01*
X279000Y222425D02*
Y225575D01*
X322622Y244500D02*
X325378D01*
X324000Y243122D02*
Y245878D01*
X292622Y244500D02*
X295378D01*
X294000Y243122D02*
Y245878D01*
X244925Y191500D02*
X248075D01*
X246500Y189925D02*
Y193075D01*
X274925Y191500D02*
X278075D01*
X276500Y189925D02*
Y193075D01*
X301122Y192000D02*
X303878D01*
X302500Y190622D02*
Y193378D01*
X301122Y222000D02*
X303878D01*
X302500Y220622D02*
Y223378D01*
X288425Y196500D02*
X291575D01*
X290000Y194925D02*
Y198075D01*
X278925Y205000D02*
X282075D01*
X280500Y203425D02*
Y206575D01*
X288425Y213500D02*
X291575D01*
X290000Y211925D02*
Y215075D01*
X370400Y185000D02*
X375600D01*
X373000Y182400D02*
Y187600D01*
X370400Y230000D02*
X375600D01*
X373000Y227400D02*
Y232600D01*
X314400Y208000D02*
X319600D01*
X317000Y205400D02*
Y210600D01*
X322400Y185000D02*
X327600D01*
X325000Y182400D02*
Y187600D01*
X322400Y230000D02*
X327600D01*
X325000Y227400D02*
Y232600D01*
X371532Y73500D02*
X375468D01*
X373500Y71531D02*
Y75468D01*
X371532Y63500D02*
X375468D01*
X373500Y61532D02*
Y65469D01*
X371532Y83500D02*
X375468D01*
X373500Y81532D02*
Y85469D01*
X371532Y93500D02*
X375468D01*
X373500Y91531D02*
Y95468D01*
X371532Y103500D02*
X375468D01*
X373500Y101532D02*
Y105468D01*
X337531Y78500D02*
X341469D01*
X339500Y76531D02*
Y80468D01*
X337531Y88500D02*
X341469D01*
X339500Y86532D02*
Y90469D01*
X337531Y98500D02*
X341469D01*
X339500Y96531D02*
Y100469D01*
X300532Y78500D02*
X304468D01*
X302500Y76531D02*
Y80468D01*
X300532Y88500D02*
X304468D01*
X302500Y86532D02*
Y90469D01*
X300532Y98500D02*
X304468D01*
X302500Y96531D02*
Y100469D01*
X262900Y14500D02*
X266100D01*
X264500Y12900D02*
Y16100D01*
X222900Y14500D02*
X226100D01*
X224500Y12900D02*
Y16100D01*
X232900Y14500D02*
X236100D01*
X234500Y12900D02*
Y16100D01*
X242900Y14500D02*
X246100D01*
X244500Y12900D02*
Y16100D01*
X252900Y14500D02*
X256100D01*
X254500Y12900D02*
Y16100D01*
X282900Y14500D02*
X286100D01*
X284500Y12900D02*
Y16100D01*
X272900Y14500D02*
X276100D01*
X274500Y12900D02*
Y16100D01*
X292900Y14500D02*
X296100D01*
X294500Y12900D02*
Y16100D01*
X13032Y143500D02*
X16969D01*
X15000Y141532D02*
Y145468D01*
X13032Y153500D02*
X16969D01*
X15000Y151532D02*
Y155468D01*
X13032Y133500D02*
X16969D01*
X15000Y131532D02*
Y135468D01*
X13032Y123500D02*
X16969D01*
X15000Y121531D02*
Y125469D01*
X13032Y113500D02*
X16969D01*
X15000Y111531D02*
Y115469D01*
X143400Y313500D02*
X148600D01*
X146000Y310900D02*
Y316100D01*
X98400Y313500D02*
X103600D01*
X101000Y310900D02*
Y316100D01*
X120400Y257500D02*
X125600D01*
X123000Y254900D02*
Y260100D01*
X143400Y265500D02*
X148600D01*
X146000Y262900D02*
Y268100D01*
X98400Y265500D02*
X103600D01*
X101000Y262900D02*
Y268100D01*
X206400Y313500D02*
X211600D01*
X209000Y310900D02*
Y316100D01*
X161400Y313500D02*
X166600D01*
X164000Y310900D02*
Y316100D01*
X183400Y257500D02*
X188600D01*
X186000Y254900D02*
Y260100D01*
X206400Y265500D02*
X211600D01*
X209000Y262900D02*
Y268100D01*
X161400Y265500D02*
X166600D01*
X164000Y262900D02*
Y268100D01*
X269400Y313500D02*
X274600D01*
X272000Y310900D02*
Y316100D01*
X224400Y313500D02*
X229600D01*
X227000Y310900D02*
Y316100D01*
X246400Y257500D02*
X251600D01*
X249000Y254900D02*
Y260100D01*
X269400Y265500D02*
X274600D01*
X272000Y262900D02*
Y268100D01*
X224400Y265500D02*
X229600D01*
X227000Y262900D02*
Y268100D01*
X332400Y313500D02*
X337600D01*
X335000Y310900D02*
Y316100D01*
X287400Y313500D02*
X292600D01*
X290000Y310900D02*
Y316100D01*
X309400Y257500D02*
X314600D01*
X312000Y254900D02*
Y260100D01*
X332400Y265500D02*
X337600D01*
X335000Y262900D02*
Y268100D01*
X287400Y265500D02*
X292600D01*
X290000Y262900D02*
Y268100D01*
X10559Y196752D02*
X14496D01*
X12528Y194783D02*
Y198721D01*
X71189Y196752D02*
X75126D01*
X73157Y194783D02*
Y198721D01*
X31032Y312500D02*
X34969D01*
X33000Y310531D02*
Y314469D01*
X50717Y312500D02*
X54654D01*
X52685Y310531D02*
Y314469D01*
X65925Y159000D02*
X69075D01*
X67500Y157425D02*
Y160575D01*
X95925Y159000D02*
X99075D01*
X97500Y157425D02*
Y160575D01*
X7740Y341000D02*
X10890D01*
X9315Y339425D02*
Y342575D01*
X27425Y341000D02*
X30575D01*
X29000Y339425D02*
Y342575D01*
X74047Y384000D02*
X79953D01*
X77000Y381047D02*
Y386953D01*
X74047Y354000D02*
X79953D01*
X77000Y351047D02*
Y356953D01*
X54047Y384000D02*
X59953D01*
X57000Y381047D02*
Y386953D01*
X54047Y354000D02*
X59953D01*
X57000Y351047D02*
Y356953D01*
X128047Y384000D02*
X133953D01*
X131000Y381047D02*
Y386953D01*
X128047Y354000D02*
X133953D01*
X131000Y351047D02*
Y356953D01*
X108047Y384000D02*
X113953D01*
X111000Y381047D02*
Y386953D01*
X108047Y354000D02*
X113953D01*
X111000Y351047D02*
Y356953D01*
X181547Y384000D02*
X187453D01*
X184500Y381047D02*
Y386953D01*
X181547Y354000D02*
X187453D01*
X184500Y351047D02*
Y356953D01*
X161547Y384000D02*
X167453D01*
X164500Y381047D02*
Y386953D01*
X161547Y354000D02*
X167453D01*
X164500Y351047D02*
Y356953D01*
X235047Y384000D02*
X240953D01*
X238000Y381047D02*
Y386953D01*
X235047Y354000D02*
X240953D01*
X238000Y351047D02*
Y356953D01*
X215047Y384000D02*
X220953D01*
X218000Y381047D02*
Y386953D01*
X215047Y354000D02*
X220953D01*
X218000Y351047D02*
Y356953D01*
X288547Y384000D02*
X294453D01*
X291500Y381047D02*
Y386953D01*
X288547Y354000D02*
X294453D01*
X291500Y351047D02*
Y356953D01*
X268547Y384000D02*
X274453D01*
X271500Y381047D02*
Y386953D01*
X268547Y354000D02*
X274453D01*
X271500Y351047D02*
Y356953D01*
X342047Y384000D02*
X347953D01*
X345000Y381047D02*
Y386953D01*
X342047Y354000D02*
X347953D01*
X345000Y351047D02*
Y356953D01*
X322047Y384000D02*
X327953D01*
X325000Y381047D02*
Y386953D01*
X322047Y354000D02*
X327953D01*
X325000Y351047D02*
Y356953D01*
X13386Y19685D02*
X25984D01*
X19685Y13386D02*
Y25984D01*
X13386Y374016D02*
X25984D01*
X19685Y367717D02*
Y380315D01*
X367717Y374016D02*
X380315D01*
X374016Y367717D02*
Y380315D01*
X367717Y19685D02*
X380315D01*
X374016Y13386D02*
Y25984D01*
X164100Y87000D02*
X166900D01*
X165500Y85600D02*
Y88400D01*
X262600Y58000D02*
X265400D01*
X264000Y56600D02*
Y59400D01*
X262600Y50000D02*
X265400D01*
X264000Y48600D02*
Y51400D01*
X284100Y120500D02*
X286900D01*
X285500Y119100D02*
Y121900D01*
X246600Y120500D02*
X249400D01*
X248000Y119100D02*
Y121900D01*
X234100Y79500D02*
X236900D01*
X235500Y78100D02*
Y80900D01*
X225600Y79500D02*
X228400D01*
X227000Y78100D02*
Y80900D01*
X233600Y154500D02*
X236400D01*
X235000Y153100D02*
Y155900D01*
X225600Y154500D02*
X228400D01*
X227000Y153100D02*
Y155900D01*
X188100Y188000D02*
X190900D01*
X189500Y186600D02*
Y189400D01*
X181600Y212500D02*
X184400D01*
X183000Y211100D02*
Y213900D01*
X152100Y148500D02*
X154900D01*
X153500Y147100D02*
Y149900D01*
X178100Y154750D02*
X180900D01*
X179500Y153350D02*
Y156150D01*
X201100Y205800D02*
X203900D01*
X202500Y204400D02*
Y207200D01*
X25022Y13560D02*
X26597D01*
X25810Y12773D02*
Y14348D01*
X12773Y13560D02*
X14348D01*
X13560Y12773D02*
Y14348D01*
X10236Y19685D02*
X11811D01*
X11024Y18898D02*
Y20472D01*
X12773Y25810D02*
X14348D01*
X13560Y25022D02*
Y26597D01*
X25219Y25908D02*
X26794D01*
X26006Y25121D02*
Y26695D01*
X27756Y19783D02*
X29331D01*
X28543Y18996D02*
Y20571D01*
X18898Y11024D02*
X20472D01*
X19685Y10236D02*
Y11811D01*
X18898Y28346D02*
X20472D01*
X19685Y27559D02*
Y29134D01*
X25022Y367891D02*
X26597D01*
X25810Y367104D02*
Y368679D01*
X12773Y367891D02*
X14348D01*
X13560Y367104D02*
Y368679D01*
X10236Y374016D02*
X11811D01*
X11024Y373228D02*
Y374803D01*
X12773Y380140D02*
X14348D01*
X13560Y379353D02*
Y380928D01*
X25219Y380239D02*
X26794D01*
X26006Y379451D02*
Y381026D01*
X27756Y374114D02*
X29331D01*
X28543Y373327D02*
Y374902D01*
X18898Y365354D02*
X20472D01*
X19685Y364567D02*
Y366142D01*
X18898Y382677D02*
X20472D01*
X19685Y381890D02*
Y383465D01*
X379353Y367891D02*
X380928D01*
X380140Y367104D02*
Y368679D01*
X367104Y367891D02*
X368679D01*
X367891Y367104D02*
Y368679D01*
X364567Y374016D02*
X366142D01*
X365354Y373228D02*
Y374803D01*
X367104Y380140D02*
X368679D01*
X367891Y379353D02*
Y380928D01*
X379550Y380239D02*
X381125D01*
X380337Y379451D02*
Y381026D01*
X382087Y374114D02*
X383661D01*
X382874Y373327D02*
Y374902D01*
X373228Y365354D02*
X374803D01*
X374016Y364567D02*
Y366142D01*
X373228Y382677D02*
X374803D01*
X374016Y381890D02*
Y383465D01*
X379353Y13560D02*
X380928D01*
X380140Y12773D02*
Y14348D01*
X367104Y13560D02*
X368679D01*
X367891Y12773D02*
Y14348D01*
X364567Y19685D02*
X366142D01*
X365354Y18898D02*
Y20472D01*
X367104Y25810D02*
X368679D01*
X367891Y25022D02*
Y26597D01*
X379550Y25908D02*
X381125D01*
X380337Y25121D02*
Y26695D01*
X382087Y19783D02*
X383661D01*
X382874Y18996D02*
Y20571D01*
X373228Y11024D02*
X374803D01*
X374016Y10236D02*
Y11811D01*
X373228Y28346D02*
X374803D01*
X374016Y27559D02*
Y29134D01*
M02*
